<svg width="22" height="22" viewBox="0 0 22 22" fill="none" xmlns="http://www.w3.org/2000/svg">
<circle cx="11" cy="11" r="11" fill="#FC2A5B"/>
<path d="M9.76819 15.152L6.19353 11.7291C6.14268 11.6814 6.10214 11.6238 6.07443 11.5598C6.04671 11.4957 6.03241 11.4267 6.03241 11.3568C6.03241 11.287 6.04671 11.218 6.07443 11.1539C6.10214 11.0899 6.14268 11.0323 6.19353 10.9846L6.97108 10.2401C7.07644 10.141 7.21545 10.0858 7.35986 10.0858C7.50428 10.0858 7.64328 10.141 7.74864 10.2401L10.158 12.5453L15.3162 7.60594C15.4215 7.50682 15.5605 7.45166 15.705 7.45166C15.8494 7.45166 15.9884 7.50682 16.0937 7.60594L16.8713 8.35043C16.9221 8.39808 16.9627 8.45572 16.9904 8.51975C17.0181 8.58379 17.0324 8.65286 17.0324 8.72267C17.0324 8.79249 17.0181 8.86156 16.9904 8.92559C16.9627 8.98963 16.9221 9.04726 16.8713 9.09492L10.551 15.152C10.4454 15.2527 10.3053 15.3088 10.1596 15.3088C10.0139 15.3088 9.87383 15.2527 9.76819 15.152Z" fill="white"/>
</svg>
