<svg width="66" height="49" viewBox="0 0 66 49" fill="none" xmlns="http://www.w3.org/2000/svg">
<g style="mix-blend-mode:luminosity" opacity="0.15" filter="url(#filter0_dii_1_640)">
<path d="M56.091 42.2909C59.2215 42.2909 61.8533 39.6704 60.7399 36.7424C60.6862 36.6012 60.6305 36.4608 60.5727 36.321C59.7893 34.4284 58.6412 32.7086 57.1937 31.26C55.7463 29.8114 54.028 28.6624 52.1368 27.8784C50.2457 27.0944 48.2187 26.6909 46.1718 26.6909C44.1248 26.6909 42.0979 27.0944 40.2067 27.8784C38.3156 28.6624 36.5972 29.8115 35.1498 31.26C33.7024 32.7086 32.5542 34.4284 31.7709 36.321C31.7131 36.4608 31.6573 36.6012 31.6036 36.7424C30.4902 39.6704 33.1221 42.2909 36.2525 42.2909H56.091Z" fill="#4AB2FD"/>
<path d="M38.3781 43C41.5085 43 44.1243 40.4101 43.242 37.4041C43.0429 36.7259 42.8074 36.0575 42.5361 35.402C41.5391 32.9931 40.0778 30.8044 38.2356 28.9607C36.3935 27.117 34.2065 25.6546 31.7996 24.6568C29.3926 23.659 26.8129 23.1455 24.2077 23.1455C21.6025 23.1455 19.0227 23.659 16.6158 24.6568C14.2089 25.6546 12.0219 27.1171 10.1797 28.9607C8.33757 30.8044 6.87627 32.9931 5.8793 35.402C5.60798 36.0575 5.37249 36.7259 5.17343 37.4041C4.29114 40.4101 6.9069 43 10.0373 43H38.3781Z" fill="#F3FAFF"/>
<path d="M32.7099 12.5091C32.7099 17.2085 28.9033 21.0182 24.2077 21.0182C19.512 21.0182 15.7055 17.2085 15.7055 12.5091C15.7055 7.80965 19.512 4 24.2077 4C28.9033 4 32.7099 7.80965 32.7099 12.5091Z" fill="#F3FAFF"/>
<path d="M53.9655 16.7636C53.9655 20.6798 50.7933 23.8545 46.8803 23.8545C42.9672 23.8545 39.7951 20.6798 39.7951 16.7636C39.7951 12.8474 42.9672 9.67273 46.8803 9.67273C50.7933 9.67273 53.9655 12.8474 53.9655 16.7636Z" fill="#4AB2FD"/>
</g>
<defs>
<filter id="filter0_dii_1_640" x="0.547068" y="0" width="64.9059" height="48.1951" filterUnits="userSpaceOnUse" color-interpolation-filters="sRGB">
<feFlood flood-opacity="0" result="BackgroundImageFix"/>
<feColorMatrix in="SourceAlpha" type="matrix" values="0 0 0 0 0 0 0 0 0 0 0 0 0 0 0 0 0 0 127 0" result="hardAlpha"/>
<feOffset dy="0.742155"/>
<feGaussianBlur stdDeviation="2.22647"/>
<feComposite in2="hardAlpha" operator="out"/>
<feColorMatrix type="matrix" values="0 0 0 0 0.709804 0 0 0 0 0.717647 0 0 0 0 0.756863 0 0 0 0.25 0"/>
<feBlend mode="normal" in2="BackgroundImageFix" result="effect1_dropShadow_1_640"/>
<feBlend mode="normal" in="SourceGraphic" in2="effect1_dropShadow_1_640" result="shape"/>
<feColorMatrix in="SourceAlpha" type="matrix" values="0 0 0 0 0 0 0 0 0 0 0 0 0 0 0 0 0 0 127 0" result="hardAlpha"/>
<feOffset dx="-4" dy="-4"/>
<feGaussianBlur stdDeviation="4"/>
<feComposite in2="hardAlpha" operator="arithmetic" k2="-1" k3="1"/>
<feColorMatrix type="matrix" values="0 0 0 0 0.196078 0 0 0 0 0.407843 0 0 0 0 0.72549 0 0 0 0.82 0"/>
<feBlend mode="normal" in2="shape" result="effect2_innerShadow_1_640"/>
<feColorMatrix in="SourceAlpha" type="matrix" values="0 0 0 0 0 0 0 0 0 0 0 0 0 0 0 0 0 0 127 0" result="hardAlpha"/>
<feOffset dx="1.92592" dy="1.92592"/>
<feGaussianBlur stdDeviation="1.44444"/>
<feComposite in2="hardAlpha" operator="arithmetic" k2="-1" k3="1"/>
<feColorMatrix type="matrix" values="0 0 0 0 0.644444 0 0 0 0 0.957202 0 0 0 0 1 0 0 0 0.65 0"/>
<feBlend mode="normal" in2="effect2_innerShadow_1_640" result="effect3_innerShadow_1_640"/>
</filter>
</defs>
</svg>
