<svg xmlns="http://www.w3.org/2000/svg" xmlns:xlink="http://www.w3.org/1999/xlink" width="500" zoomAndPan="magnify" viewBox="0 0 375 374.999991" height="500" preserveAspectRatio="xMidYMid meet" version="1.0"><defs><clipPath id="b3f258e66b"><path d="M 236 180 L 262.5 180 L 262.5 254 L 236 254 Z M 236 180 " clip-rule="nonzero"/></clipPath><clipPath id="ca16abdbc9"><path d="M 112.5 121 L 252 121 L 252 255.84375 L 112.5 255.84375 Z M 112.5 121 " clip-rule="nonzero"/></clipPath></defs><g clip-path="url(#b3f258e66b)"><path fill="#000000" d="M 262.195312 203.253906 L 258.339844 184.480469 L 249.847656 180.722656 L 236.355469 188.355469 C 236.355469 188.355469 242.453125 195.226562 247.925781 200.15625 C 253.398438 205.085938 249.847656 216.078125 249.359375 223.3125 C 248.871094 230.550781 258.71875 251.597656 258.71875 253.402344 C 258.71875 255.203125 259.496094 241.1875 259.496094 241.1875 C 259.496094 241.1875 261.796875 222.566406 262.195312 219.085938 C 262.589844 215.605469 262.195312 203.253906 262.195312 203.253906 Z M 262.195312 203.253906 " fill-opacity="1" fill-rule="nonzero"/></g><g clip-path="url(#ca16abdbc9)"><path fill="#000000" d="M 250.242188 168.132812 C 254.816406 157.707031 244.453125 141.097656 235.976562 135.050781 C 227.5 129.007812 210.535156 126.871094 210.535156 126.871094 C 215.929688 129.25 221.796875 139.21875 222.867188 140.851562 C 225.335938 144.652344 205.898438 122.960938 190.546875 121.421875 C 175.199219 119.878906 150.457031 126.871094 150.457031 126.871094 C 148.398438 126.609375 146.339844 126.589844 144.277344 126.824219 C 142.214844 127.054688 140.210938 127.523438 138.261719 128.238281 C 136.3125 128.949219 134.472656 129.878906 132.746094 131.03125 C 131.019531 132.183594 129.453125 133.523438 128.046875 135.050781 C 128.046875 135.050781 120.703125 139.507812 117.226562 145.019531 C 113.75 150.53125 117.226562 160.023438 117.226562 160.023438 L 112.988281 165.046875 C 112.605469 178.558594 130.714844 180.722656 130.714844 180.722656 L 118.382812 180.722656 C 115.03125 183.410156 113.367188 190.128906 112.972656 199.515625 C 112.578125 208.902344 112.972656 223.800781 112.972656 223.800781 L 115.6875 255.386719 L 118.003906 238.394531 C 118.003906 238.394531 124.101562 228.746094 121.464844 219.863281 C 118.828125 210.980469 125.703125 199.515625 125.703125 199.515625 C 125.703125 199.515625 138.046875 186.28125 139.589844 186.554688 C 141.128906 186.832031 202.421875 186.664062 213.992188 187.425781 C 225.5625 188.1875 234.816406 184.371094 235.976562 184.371094 C 237.132812 184.371094 245.609375 178.558594 250.242188 168.132812 Z M 197.804688 173.09375 C 197.421875 155.71875 173.125 138.058594 173.125 138.058594 C 173.125 138.058594 179.679688 136.53125 190.089844 146.835938 C 200.503906 157.140625 197.804688 173.09375 197.804688 173.09375 Z M 239.144531 176.558594 L 238.671875 171.152344 C 241.753906 161.949219 228.660156 140.851562 228.660156 140.851562 C 247.546875 156.804688 239.144531 176.617188 239.144531 176.617188 Z M 239.144531 176.558594 " fill-opacity="1" fill-rule="nonzero"/></g></svg>