<svg xmlns="http://www.w3.org/2000/svg" xmlns:xlink="http://www.w3.org/1999/xlink" width="500" zoomAndPan="magnify" viewBox="0 0 375 374.999991" height="500" preserveAspectRatio="xMidYMid meet" version="1.0"><defs><clipPath id="301ce0107a"><path d="M 112.242188 117 L 262.242188 117 L 262.242188 260 L 112.242188 260 Z M 112.242188 117 " clip-rule="nonzero"/></clipPath><clipPath id="cd099cbad2"><path d="M 112 177 L 124 177 L 124 255 L 112 255 Z M 112 177 " clip-rule="nonzero"/></clipPath><clipPath id="55d7ccab3c"><path d="M 112.246094 254.859375 L 118.851562 176.390625 L 124.085938 176.828125 L 117.476562 255.300781 Z M 112.246094 254.859375 " clip-rule="nonzero"/></clipPath><clipPath id="83cc9912d1"><path d="M 112.246094 254.859375 L 118.851562 176.390625 L 124.085938 176.828125 L 117.476562 255.300781 Z M 112.246094 254.859375 " clip-rule="nonzero"/></clipPath><clipPath id="e5c50cfa94"><path d="M 112.246094 254.859375 L 118.851562 176.390625 L 124.085938 176.828125 L 117.476562 255.300781 Z M 112.246094 254.859375 " clip-rule="nonzero"/></clipPath><clipPath id="7cfb5ec59f"><path d="M 251 176 L 263 176 L 263 254 L 251 254 Z M 251 176 " clip-rule="nonzero"/></clipPath><clipPath id="7237c77f21"><path d="M 256.382812 175.453125 L 262.738281 253.949219 L 257.507812 254.371094 L 251.152344 175.878906 Z M 256.382812 175.453125 " clip-rule="nonzero"/></clipPath><clipPath id="f8fd3fd7db"><path d="M 256.382812 175.453125 L 262.738281 253.949219 L 257.507812 254.371094 L 251.152344 175.878906 Z M 256.382812 175.453125 " clip-rule="nonzero"/></clipPath><clipPath id="88c364bef3"><path d="M 256.382812 175.453125 L 262.738281 253.949219 L 257.507812 254.371094 L 251.152344 175.878906 Z M 256.382812 175.453125 " clip-rule="nonzero"/></clipPath><clipPath id="32b8d0792d"><path d="M 112.242188 252.007812 L 144.492188 252.007812 L 144.492188 259.507812 L 112.242188 259.507812 Z M 112.242188 252.007812 " clip-rule="nonzero"/></clipPath><clipPath id="c1bb29f116"><path d="M 230.175781 251.554688 L 262.425781 251.554688 L 262.425781 259.054688 L 230.175781 259.054688 Z M 230.175781 251.554688 " clip-rule="nonzero"/></clipPath></defs><g clip-path="url(#301ce0107a)"><path fill="#000000" d="M 262.242188 253.546875 C 249.96875 258.824219 237.550781 260.863281 223.929688 258.945312 C 230.082031 248.773438 232.121094 237.855469 233.46875 226.816406 C 234.789062 215.925781 235.78125 205.003906 236.949219 193.574219 C 234.519531 193.425781 233.082031 193.273438 231.609375 193.273438 C 215.5625 193.246094 199.539062 193.183594 183.492188 193.304688 C 180.402344 193.335938 179.171875 192.554688 178.78125 189.253906 C 177.609375 179.59375 175.992188 169.996094 173.742188 160.273438 C 172.089844 171.136719 170.410156 182.023438 168.699219 193.273438 C 158.589844 193.273438 148.75 193.273438 139 193.273438 C 136.511719 205.753906 142.8125 242.175781 150.339844 258.914062 C 137.050781 260.953125 124.628906 258.796875 112.242188 253.484375 C 119.652344 243.164062 119.289062 231.796875 118.089844 220.273438 C 116.351562 203.386719 116.441406 186.496094 118.902344 169.753906 C 121.75 150.375 132.429688 135.824219 149.832031 127.09375 C 175.78125 114.046875 202.089844 114.316406 227.5 128.65625 C 245.261719 138.675781 255.160156 154.664062 256.269531 174.945312 C 257.171875 191.324219 256.601562 207.796875 255.96875 224.203125 C 255.519531 236.023438 256.511719 243.40625 262.242188 253.546875 Z M 262.242188 253.546875 " fill-opacity="1" fill-rule="nonzero"/></g><g clip-path="url(#cd099cbad2)"><g clip-path="url(#55d7ccab3c)"><g clip-path="url(#83cc9912d1)"><g clip-path="url(#e5c50cfa94)"><path fill="#000000" d="M 118.570312 179.738281 L 112.527344 251.511719 C 112.40625 252.925781 113.480469 254.171875 114.925781 254.296875 C 116.371094 254.417969 117.640625 253.367188 117.757812 251.953125 L 123.804688 180.179688 C 123.921875 178.765625 122.847656 177.515625 121.402344 177.394531 C 119.957031 177.273438 118.691406 178.324219 118.570312 179.738281 Z M 118.570312 179.738281 " fill-opacity="1" fill-rule="nonzero"/></g></g></g></g><g clip-path="url(#7cfb5ec59f)"><g clip-path="url(#7237c77f21)"><g clip-path="url(#f8fd3fd7db)"><g clip-path="url(#88c364bef3)"><path fill="#000000" d="M 262.46875 250.597656 L 256.65625 178.804688 C 256.542969 177.390625 255.277344 176.335938 253.832031 176.453125 C 252.386719 176.570312 251.308594 177.8125 251.421875 179.230469 L 257.234375 251.019531 C 257.351562 252.4375 258.613281 253.492188 260.058594 253.375 C 261.503906 253.257812 262.582031 252.011719 262.46875 250.597656 Z M 262.46875 250.597656 " fill-opacity="1" fill-rule="nonzero"/></g></g></g></g><g clip-path="url(#32b8d0792d)"><path fill="#000000" d="M 112.242188 252.007812 L 144.488281 252.007812 L 144.488281 259.511719 L 112.242188 259.511719 Z M 112.242188 252.007812 " fill-opacity="1" fill-rule="nonzero"/></g><g clip-path="url(#c1bb29f116)"><path fill="#000000" d="M 230.179688 251.554688 L 262.425781 251.554688 L 262.425781 259.058594 L 230.179688 259.058594 Z M 230.179688 251.554688 " fill-opacity="1" fill-rule="nonzero"/></g></svg>