<svg xmlns="http://www.w3.org/2000/svg" xmlns:xlink="http://www.w3.org/1999/xlink" width="500" zoomAndPan="magnify" viewBox="0 0 375 374.999991" height="500" preserveAspectRatio="xMidYMid meet" version="1.0"><defs><clipPath id="7e6004f1e5"><path d="M 121.921875 100.5 L 253.171875 100.5 L 253.171875 274.5 L 121.921875 274.5 Z M 121.921875 100.5 " clip-rule="nonzero"/></clipPath><clipPath id="e85db9ae8b"><path d="M 148 123 L 225 123 L 225 165.988281 L 148 165.988281 Z M 148 123 " clip-rule="nonzero"/></clipPath></defs><g clip-path="url(#7e6004f1e5)"><path fill="#000000" d="M 152.851562 272.402344 C 152.949219 272.457031 153.050781 272.503906 153.152344 272.550781 C 152.957031 272.570312 152.757812 272.585938 152.558594 272.585938 C 152.644531 272.535156 152.722656 272.476562 152.851562 272.402344 Z M 248.710938 225.734375 C 249.449219 226.492188 250.121094 227.300781 250.695312 228.1875 C 251.25 229.042969 251.792969 229.871094 252.164062 230.824219 C 252.464844 231.609375 252.484375 232.679688 252.378906 233.578125 C 252.5625 233.253906 253.117188 230.433594 253.09375 229.71875 C 253.046875 228.246094 252.964844 226.832031 252.609375 225.394531 C 252.289062 224.105469 251.4375 223.074219 250.636719 222.054688 C 249.65625 220.808594 248.636719 219.582031 247.617188 218.367188 C 245.578125 215.953125 243.578125 213.5 241.96875 210.761719 C 241.160156 209.382812 240.359375 207.953125 239.78125 206.457031 C 239.335938 205.304688 238.960938 204.125 238.535156 202.964844 C 238.578125 202.960938 238.625 202.929688 238.605469 202.871094 C 238.175781 201.539062 238.0625 200.128906 237.71875 198.765625 C 237.308594 197.152344 236.675781 195.617188 236.378906 193.96875 C 236.121094 192.554688 235.5 191.152344 235.1875 189.738281 C 234.832031 188.164062 234.636719 186.558594 234.363281 184.96875 C 234.117188 183.523438 233.800781 182.101562 233.582031 180.652344 C 233.3125 178.867188 233.257812 177.152344 233.183594 175.359375 C 233.121094 173.867188 232.890625 172.363281 232.75 170.878906 C 232.605469 169.382812 232.578125 167.851562 232.214844 166.390625 C 231.445312 163.304688 230.953125 160.113281 230.476562 156.964844 C 230.011719 153.914062 229.234375 150.894531 228.230469 147.976562 C 227.210938 145.023438 226.925781 141.882812 226.027344 138.886719 C 225.597656 137.441406 224.894531 136.078125 224.324219 134.6875 C 224.195312 134.375 224.070312 134.066406 223.941406 133.757812 C 223.648438 132.652344 223.332031 131.550781 222.980469 130.453125 C 221.117188 124.667969 218.066406 119.296875 214.601562 114.328125 C 212.097656 110.746094 209 107.503906 204.894531 105.804688 C 200.664062 104.050781 195.878906 103.75 191.441406 104.855469 C 190.101562 103.515625 188.375 102.566406 186.65625 101.796875 C 183.980469 100.597656 181.304688 100.480469 178.421875 100.667969 C 175.414062 100.863281 172.597656 101.636719 169.820312 102.785156 C 167.1875 103.875 157.644531 110.25 155.699219 112.371094 C 153.695312 114.554688 151.597656 116.636719 149.90625 119.085938 C 148.054688 121.761719 146.457031 124.597656 144.988281 127.496094 C 143.617188 130.207031 141.089844 137.5 141.007812 138.371094 C 139.632812 144.171875 138.601562 150.070312 137.839844 155.976562 C 136.957031 162.8125 136.683594 169.707031 135.335938 176.484375 C 134.675781 179.789062 133.621094 182.945312 132.667969 186.167969 C 131.71875 189.382812 130.820312 192.613281 129.800781 195.804688 C 127.859375 201.910156 125.09375 207.710938 123.457031 213.917969 C 122.527344 217.4375 121.96875 221.03125 121.992188 224.671875 C 122.019531 228.234375 122.425781 231.863281 123.21875 235.335938 C 123.992188 238.722656 125.585938 241.921875 127.234375 244.960938 C 128.167969 246.6875 129.230469 248.351562 130.386719 249.945312 C 130.488281 250.332031 130.59375 250.722656 130.714844 251.121094 C 130.941406 251.851562 131.109375 252.476562 131.457031 253.167969 C 131.871094 253.988281 132.113281 254.855469 132.511719 255.679688 C 133.171875 257.039062 134.304688 258.253906 135.289062 259.382812 C 136.027344 260.230469 136.832031 260.902344 137.730469 261.480469 C 137.902344 262.789062 138.300781 264.097656 138.832031 265.226562 C 139.765625 267.210938 140.542969 268.972656 142.414062 270.242188 C 143.800781 271.175781 145.503906 271.726562 147.175781 272.105469 C 148.011719 272.4375 148.917969 272.601562 149.804688 272.691406 C 150.003906 272.710938 150.207031 272.722656 150.40625 272.730469 C 151.476562 272.90625 152.546875 273 153.59375 272.769531 C 154.464844 273.175781 155.371094 273.511719 156.324219 273.746094 C 159.296875 274.480469 162.570312 274.382812 165.558594 273.808594 C 166.976562 273.535156 168.339844 273.054688 169.632812 272.414062 C 171 271.734375 172.523438 270.632812 173.519531 269.46875 C 174.464844 268.359375 176.878906 263.65625 177.175781 262.527344 C 176.464844 263.4375 175.808594 264.367188 174.945312 265.164062 C 173.820312 266.199219 172.191406 266.71875 170.730469 267.050781 C 167.824219 267.710938 164.625 267.144531 161.882812 266.097656 C 159.242188 265.089844 156.859375 263.382812 155.023438 261.242188 C 154.039062 260.09375 153.308594 258.789062 152.777344 257.378906 C 152.242188 255.949219 151.578125 252.835938 151.597656 252.703125 C 151.664062 252.796875 151.730469 252.886719 151.800781 252.980469 C 152.648438 254.074219 153.765625 255.300781 154.871094 256.140625 C 157.242188 257.945312 159.925781 259.234375 162.835938 259.878906 C 165.472656 260.46875 168.484375 261.171875 171.164062 260.511719 C 172.429688 260.199219 175.863281 258.078125 176.019531 257.835938 C 176.027344 257.828125 176.03125 257.816406 176.039062 257.804688 C 173.277344 258.972656 156.953125 257.542969 157.214844 239.003906 C 157.300781 232.816406 162.074219 227.171875 162.625 225.839844 C 165.9375 217.84375 164.664062 209.921875 164.664062 209.921875 C 164.664062 209.921875 157.902344 202.648438 156.660156 198.484375 C 155.183594 193.53125 154.359375 189.371094 153.726562 184.246094 C 153.253906 180.382812 152.929688 176.28125 153.503906 172.371094 C 153.535156 172.367188 153.5625 172.351562 153.570312 172.316406 C 154.230469 169.421875 154.964844 166.574219 156.871094 164.210938 C 158.636719 162.027344 161.167969 160.1875 163.648438 158.902344 C 168.921875 156.164062 175.03125 155.503906 180.316406 152.839844 C 185.128906 150.414062 188.726562 145.480469 191.101562 140.789062 C 192.417969 138.1875 193.308594 135.417969 193.980469 132.589844 C 194.300781 131.246094 194.53125 129.882812 194.6875 128.511719 C 194.761719 127.859375 194.652344 127.050781 194.636719 126.273438 C 195.828125 126.988281 196.917969 127.671875 197.855469 128.753906 C 198.914062 129.980469 199.699219 131.449219 200.578125 132.804688 C 202.339844 135.511719 204.085938 138.253906 205.675781 141.0625 C 207.320312 143.960938 208.800781 146.914062 209.796875 150.105469 C 210.757812 153.183594 211.261719 156.417969 211.777344 159.597656 C 212.835938 166.148438 213.4375 172.765625 214.488281 179.316406 C 214.890625 181.855469 215.171875 184.355469 215.234375 186.894531 C 215.105469 187.570312 214.871094 188.242188 214.640625 188.882812 C 213.875 191.027344 212.769531 193.117188 211.78125 195.167969 C 209.902344 199.074219 206.925781 202.195312 204.320312 205.609375 C 204.261719 205.6875 203.480469 212.007812 203.839844 214.058594 C 204.195312 216.113281 203.59375 219.339844 204.253906 221.914062 C 205.257812 225.84375 214.734375 234.871094 208.222656 249.5625 C 206.4375 253.585938 201.929688 257.523438 197.128906 257.351562 C 194.820312 257.265625 192.671875 255.953125 191.375 254.085938 C 189.910156 251.976562 191.523438 247.890625 191.492188 247.921875 C 190.269531 249.152344 189.253906 251.964844 189.042969 253.050781 C 188.542969 255.625 189 257.917969 190.605469 259.996094 C 192.078125 261.894531 194.320312 263.285156 196.632812 263.882812 C 198.007812 264.238281 199.40625 264.148438 200.761719 263.8125 C 199.164062 264.777344 197.160156 264.882812 195.292969 264.847656 C 194.242188 264.824219 193.230469 264.464844 192.289062 263.992188 C 191.027344 263.539062 189.828125 262.800781 188.980469 261.816406 C 188.878906 264.183594 191.589844 266.1875 193.410156 267.195312 C 196.007812 268.628906 198.992188 269.121094 201.925781 269.039062 C 204.816406 268.957031 207.828125 268.421875 210.378906 267.011719 C 212.980469 265.578125 215.027344 263.128906 216.898438 260.863281 C 216.539062 262.449219 216.035156 263.472656 215.148438 264.867188 C 214.0625 266.574219 212.285156 267.648438 212.285156 267.648438 C 214.726562 267.199219 216.84375 265.980469 218.882812 264.621094 C 221.289062 263.023438 223.636719 261.335938 225.964844 259.628906 C 230.105469 256.589844 234.371094 253.390625 237.035156 248.910156 C 239.726562 244.382812 240.59375 239.136719 240.828125 233.949219 C 241.039062 229.230469 240.625 224.515625 239.445312 219.953125 C 240.039062 221.246094 240.886719 222.453125 241.707031 223.542969 C 243.339844 225.71875 245.296875 227.625 246.996094 229.742188 C 248.003906 230.992188 248.714844 232.316406 248.917969 233.921875 C 249.066406 235.113281 249.0625 236.386719 248.988281 237.585938 C 248.847656 239.886719 247.847656 241.855469 245.957031 243.058594 C 246.328125 242.992188 248.214844 241.597656 248.632812 241.066406 C 249.953125 239.402344 250.472656 237.675781 250.773438 235.605469 C 251.359375 231.621094 249.933594 228.160156 247.789062 224.9375 C 248.105469 225.1875 248.417969 225.4375 248.710938 225.734375 " fill-opacity="1" fill-rule="nonzero"/></g><g clip-path="url(#e85db9ae8b)"><path fill="#000000" d="M 205.902344 209.746094 C 209.269531 193.398438 211.453125 177.484375 209.769531 161.054688 C 208.972656 161.347656 208.3125 161.589844 207.480469 161.882812 C 207.273438 160.5 207.082031 159.183594 206.890625 157.882812 C 206.753906 157.882812 206.613281 157.867188 206.476562 157.867188 C 206.042969 159.253906 206.007812 161.140625 205.054688 161.902344 C 204.066406 162.714844 202.207031 162.472656 200.265625 162.765625 C 200.265625 159.617188 200.265625 156.898438 200.265625 154.195312 C 200.074219 154.195312 199.882812 154.179688 199.695312 154.179688 C 199.398438 156.394531 199.242188 158.628906 198.757812 160.8125 C 198.601562 161.484375 197.613281 162.457031 196.988281 162.472656 C 191.59375 162.613281 186.199219 162.542969 180.335938 162.542969 C 180.613281 159.390625 180.875 156.515625 181.136719 153.640625 C 180.925781 153.589844 180.71875 153.539062 180.511719 153.488281 C 179.851562 156.34375 179.175781 159.21875 178.445312 162.351562 C 175.046875 162.351562 171.371094 162.351562 167.519531 162.351562 C 167.519531 161.019531 167.519531 159.753906 167.519531 158.492188 C 167.328125 158.421875 167.15625 158.351562 166.964844 158.28125 C 166.21875 160.8125 165.210938 163.304688 164.777344 165.882812 C 163.0625 176.117188 164.449219 186.210938 166.566406 196.222656 C 167.535156 200.773438 168.75 205.292969 169.949219 210.195312 C 159.957031 206.109375 153.15625 199.492188 150.191406 189.382812 C 146.929688 178.246094 148.578125 167.285156 151.890625 156.480469 C 154.199219 148.949219 157.617188 141.953125 162.351562 135.546875 C 172.53125 121.796875 199.761719 117.28125 212.511719 136.515625 C 225.261719 155.738281 227.929688 176.359375 218.496094 197.847656 C 216.136719 203.21875 212.09375 207.320312 205.902344 209.746094 Z M 205.902344 209.746094 " fill-opacity="1" fill-rule="nonzero"/></g></svg>