<svg xmlns="http://www.w3.org/2000/svg" xmlns:xlink="http://www.w3.org/1999/xlink" width="500" zoomAndPan="magnify" viewBox="0 0 375 374.999991" height="500" preserveAspectRatio="xMidYMid meet" version="1.0"><defs><clipPath id="66d5f686ff"><path d="M 114 114.96875 L 261 114.96875 L 261 259.71875 L 114 259.71875 Z M 114 114.96875 " clip-rule="nonzero"/></clipPath></defs><g clip-path="url(#66d5f686ff)"><path fill="#000000" d="M 172.800781 114.949219 L 171.734375 114.960938 C 164.167969 115.847656 157.488281 117.863281 151.6875 121.007812 C 148.746094 122.507812 145.097656 125.613281 140.75 130.324219 C 125.429688 153.835938 116.953125 174.1875 115.320312 191.371094 C 113.480469 207.8125 115.203125 221.449219 120.484375 232.285156 C 122.796875 236.253906 126.421875 239.820312 131.355469 242.992188 C 133.804688 244.660156 139.558594 247.746094 148.617188 252.253906 C 150.222656 253.460938 151.75 255.9375 153.207031 259.6875 C 155.691406 252.628906 156.4375 247.664062 155.4375 244.78125 L 162.5625 245.984375 C 159.605469 242.484375 155.484375 238.976562 150.199219 235.460938 C 149.050781 234.253906 148.363281 233.332031 148.144531 232.695312 C 147.695312 231.332031 147.835938 230.488281 148.5625 230.15625 L 157.554688 230.558594 C 151.316406 223.617188 147.40625 217.234375 145.824219 211.40625 C 145.042969 208.304688 144.800781 204.917969 145.097656 201.246094 C 144.902344 200.609375 145.664062 200.453125 147.386719 200.777344 C 146.472656 198.144531 146.402344 195.964844 147.175781 194.238281 L 148.082031 193.03125 L 169.859375 188.394531 L 176.230469 172.839844 L 173.820312 191.78125 L 179.492188 187.316406 C 187.523438 187.234375 192.8125 186.742188 195.363281 185.84375 C 196.867188 185.089844 197.851562 182.492188 198.320312 178.046875 C 200.066406 168.640625 201.042969 160.683594 201.253906 154.167969 C 208.519531 166.714844 211.328125 178.839844 209.683594 190.539062 C 211.703125 187.300781 213.199219 185.640625 214.164062 185.554688 L 227.460938 188.640625 L 229.121094 195.152344 C 231.128906 206.632812 225.851562 220.730469 213.296875 237.441406 C 218.429688 235.542969 222.59375 233.621094 225.789062 231.675781 C 224.097656 232.851562 220.097656 236.542969 213.789062 242.746094 L 224.480469 238.988281 C 222.851562 248.050781 222.832031 254.089844 224.417969 257.097656 C 226.054688 251.519531 228.363281 247.746094 231.347656 245.773438 L 240.699219 243.355469 C 241.117188 244.125 241.007812 245.90625 240.359375 248.699219 C 240.480469 249.703125 240.753906 250.074219 241.191406 249.808594 C 241.398438 247.636719 246.34375 239.925781 256.023438 226.683594 C 258.445312 221.816406 259.792969 218.167969 260.066406 215.734375 C 261.628906 203.609375 260.835938 191.636719 257.691406 179.824219 C 255.445312 172.375 252.585938 165.023438 249.121094 157.765625 C 246.082031 152.632812 243.03125 148.328125 239.964844 144.847656 C 238.03125 142.597656 235.980469 140.457031 233.808594 138.421875 C 228.167969 133.519531 224.644531 130.707031 223.230469 129.984375 C 218.171875 126.550781 212.636719 123.542969 206.625 120.964844 L 199.664062 118.238281 L 195.804688 117.550781 C 187.539062 116.019531 179.871094 115.152344 172.800781 114.949219 " fill-opacity="1" fill-rule="nonzero"/></g></svg>