<svg xmlns="http://www.w3.org/2000/svg" xmlns:xlink="http://www.w3.org/1999/xlink" width="500" zoomAndPan="magnify" viewBox="0 0 375 374.999991" height="500" preserveAspectRatio="xMidYMid meet" version="1.0"><defs><clipPath id="f3f2c975f3"><path d="M 112.5 131.0625 L 262 131.0625 L 262 244.3125 L 112.5 244.3125 Z M 112.5 131.0625 " clip-rule="nonzero"/></clipPath></defs><g clip-path="url(#f3f2c975f3)"><path fill="#000000" d="M 201.789062 131.109375 L 201.515625 131.101562 C 194.207031 131.074219 189.496094 131.617188 187.390625 132.726562 C 182.113281 134.554688 178.085938 137.148438 175.3125 140.515625 C 170.730469 138.316406 167.609375 137.277344 165.949219 137.390625 C 163.632812 137.175781 161.453125 137.449219 159.417969 138.21875 L 133.839844 151.535156 L 131.105469 153.417969 C 128.816406 155.359375 125.640625 159.988281 121.574219 167.300781 C 117.808594 174.136719 115.21875 180.703125 113.8125 186.992188 C 113.089844 188.648438 112.699219 193.210938 112.632812 200.675781 C 112.816406 203.613281 113.289062 206.484375 114.058594 209.285156 C 117.160156 219.703125 120.042969 225.679688 122.703125 227.214844 L 124.433594 234.136719 C 124.652344 234.570312 124.898438 234.964844 125.160156 235.324219 C 125.714844 236.023438 126.167969 236.492188 126.523438 236.730469 C 130.59375 238.296875 133.617188 240.101562 135.59375 242.152344 C 136.957031 242.675781 138.175781 242.957031 139.253906 243 C 142.839844 243.03125 145.425781 242.375 147 241.027344 C 148.230469 240.761719 148.210938 239.269531 146.9375 236.550781 C 146.917969 236.394531 148.207031 235.515625 150.804688 233.910156 C 154.851562 234.792969 157.832031 235.199219 159.742188 235.128906 C 160.152344 235.480469 162.515625 234.707031 166.835938 232.8125 C 172.3125 229.554688 175.976562 226.121094 177.824219 222.507812 C 179.816406 219.011719 180.988281 215.109375 181.335938 210.800781 C 181.164062 206.613281 179.859375 198.730469 177.421875 187.15625 C 177.15625 182.578125 177.222656 176.953125 177.621094 170.285156 C 180.132812 176.03125 181.21875 181.316406 180.882812 186.144531 C 182.429688 184.515625 183.796875 181.285156 184.984375 176.457031 L 186.878906 184.074219 C 187.246094 186.699219 187.335938 189.089844 187.144531 191.238281 C 184.8125 202.023438 183.589844 211.152344 183.46875 218.632812 C 184.074219 227.027344 186.214844 232.542969 189.886719 235.171875 C 193.035156 238.464844 198.410156 240.253906 206.003906 240.539062 C 210.316406 240.5 217.265625 238.597656 226.855469 234.828125 L 236.710938 233.777344 C 239.46875 234.5 241.652344 235.535156 243.269531 236.878906 C 244.394531 237.648438 246.351562 239.792969 249.140625 243.3125 C 249.871094 243.972656 250.515625 244.222656 251.078125 244.0625 C 253.578125 237.726562 255.71875 231.730469 257.5 226.078125 C 258.773438 209.566406 260.238281 199.261719 261.902344 195.160156 C 262.203125 189.171875 261.171875 183.894531 258.8125 179.328125 C 257.234375 175.84375 254.773438 171.953125 251.421875 167.660156 C 248.40625 159.355469 246.449219 155.183594 245.554688 155.144531 C 241.191406 151.707031 236.074219 148.746094 230.207031 146.257812 C 223.789062 139.621094 219.652344 136.066406 217.800781 135.585938 C 212.941406 132.960938 207.605469 131.46875 201.789062 131.109375 " fill-opacity="1" fill-rule="nonzero"/></g></svg>