<svg width="19" height="18" viewBox="0 0 19 18" fill="none" xmlns="http://www.w3.org/2000/svg">
<path d="M14.3925 10.5831C14.2395 10.4654 14.0489 10.4074 13.8563 10.4199C13.6637 10.4323 13.4822 10.5144 13.3456 10.6507L11.6656 12.3315C11.5405 12.4579 11.3764 12.5384 11.1998 12.5599C11.0233 12.5814 10.8446 12.5427 10.6928 12.45C9.7543 11.8498 8.88886 11.1424 8.11393 10.3421C7.31438 9.56714 6.60752 8.70199 6.00757 7.76399C5.91479 7.61229 5.87608 7.43366 5.89775 7.25716C5.91941 7.08067 6.00017 6.9167 6.12688 6.79194L7.80609 5.11115C7.94231 4.97445 8.0242 4.7929 8.03649 4.60031C8.04879 4.40772 7.99065 4.21723 7.87291 4.06433L5.4237 0.89842C5.29232 0.727435 5.12736 0.585113 4.93898 0.480192C4.75059 0.375271 4.54274 0.309966 4.3282 0.288289C4.11366 0.266611 3.89695 0.289018 3.69138 0.354133C3.48582 0.419248 3.29573 0.525697 3.13279 0.666943C2.06038 1.5197 1.2621 2.66871 0.837111 3.97126C0.26677 6.36558 1.16802 9.37001 5.13257 13.3314C9.09711 17.2927 12.0984 18.194 14.4919 17.6268C15.7948 17.1995 16.9438 16.3998 17.797 15.3264C17.9382 15.1633 18.0445 14.9732 18.1095 14.7675C18.1745 14.5619 18.1967 14.3452 18.1749 14.1306C18.1531 13.9161 18.0876 13.7083 17.9826 13.5199C17.8775 13.3316 17.735 13.1667 17.5639 13.0355L14.3925 10.5831Z" fill="white"/>
</svg>
