<svg width="13" height="9" viewBox="0 0 13 9" fill="none" xmlns="http://www.w3.org/2000/svg">
<path d="M4.53816 8.34038L0.801008 4.8552C0.747854 4.80668 0.705473 4.748 0.676497 4.6828C0.647521 4.6176 0.632568 4.54727 0.632568 4.47619C0.632568 4.4051 0.647521 4.33477 0.676497 4.26958C0.705473 4.20438 0.747854 4.14569 0.801008 4.09718L1.61391 3.33915C1.72406 3.23823 1.86938 3.18206 2.02036 3.18206C2.17134 3.18206 2.31666 3.23823 2.42681 3.33915L4.94571 5.68623L10.3383 0.65709C10.4485 0.556165 10.5938 0.5 10.7448 0.5C10.8958 0.5 11.0411 0.556165 11.1512 0.65709L11.9641 1.41511C12.0173 1.46363 12.0597 1.52231 12.0886 1.58751C12.1176 1.65271 12.1326 1.72304 12.1326 1.79412C12.1326 1.86521 12.1176 1.93553 12.0886 2.00073C12.0597 2.06593 12.0173 2.12461 11.9641 2.17313L5.35655 8.34038C5.24612 8.44286 5.09964 8.5 4.94736 8.5C4.79507 8.5 4.6486 8.44286 4.53816 8.34038V8.34038Z"/>
</svg>
