<svg width="24" height="19" viewBox="0 0 24 19" fill="none" xmlns="http://www.w3.org/2000/svg">
<path d="M21.2664 15.6999V16.9218H2.73375V15.6999C2.73375 15.2209 2.33308 14.8357 1.84192 14.8357C1.35075 14.8357 0.950076 15.2209 0.950076 15.6999V18.5993V18.6493H1.00008H23.0001H23.0501V18.5993V15.6999C23.0501 15.2209 22.6494 14.8357 22.1582 14.8357C21.6671 14.8357 21.2664 15.2209 21.2664 15.6999Z" fill="white" stroke="white" stroke-width="0.1"/>
<path d="M11.1086 14.3702C11.1086 14.8328 11.4823 15.2079 11.9504 15.233V15.2351H12.0004C12.4916 15.2351 12.8922 14.85 12.8922 14.371V1.81415C12.8922 1.33513 12.4916 0.95 12.0004 0.95C11.5092 0.95 11.1086 1.33513 11.1086 1.81415V14.3702Z" fill="white" stroke="white" stroke-width="0.1"/>
<path d="M18.2731 7.92803L13.2081 12.8264C12.5412 13.4713 11.4599 13.4713 10.7931 12.8264L5.7281 7.92803C5.36559 7.57744 4.7788 7.57744 4.41629 7.92803C4.05285 8.27952 4.05285 8.84985 4.41629 9.20134L10.7235 15.3012C11.4292 15.9836 12.572 15.9836 13.2776 15.3012L19.5849 9.20134C19.9483 8.84985 19.9483 8.27952 19.5849 7.92803C19.2224 7.57744 18.6356 7.57744 18.2731 7.92803Z" fill="white" stroke="white" stroke-width="0.1"/>
</svg>
