<svg width="24" height="21" viewBox="0 0 24 21" fill="none" xmlns="http://www.w3.org/2000/svg">
<path d="M11.4975 1.05314L11.4973 1.05329L3.99644 8.37105C3.99641 8.37108 3.99638 8.37111 3.99636 8.37113C3.86305 8.50083 3.78584 8.67802 3.78584 8.86565V19.3094C3.78584 19.6956 4.11223 20.0071 4.49898 20.0071H19.501C19.8878 20.0071 20.2142 19.6956 20.2142 19.3094V8.86565C20.2142 8.67798 20.1369 8.50076 20.0036 8.37105L12.5027 1.05329L12.5025 1.05314C12.2341 0.792012 11.7659 0.792012 11.4975 1.05314ZM18.7879 9.15527V18.6116H5.21212V9.15527L12 2.53147L18.7879 9.15527Z" fill="white" stroke="white" stroke-width="0.3"/>
<path d="M11.4973 1.05329L11.4975 1.05314C11.7659 0.792012 12.2341 0.792012 12.5025 1.05314L12.5027 1.05329L22.9394 11.234L22.9396 11.2341L11.4973 1.05329ZM11.4973 1.05329L1.0606 11.234C0.782302 11.5046 0.782302 11.9525 1.0606 12.2232C1.20312 12.3618 1.38413 12.4263 1.56314 12.4263C1.74215 12.4263 1.92316 12.3618 2.06568 12.2232L2.06584 12.223L12 2.53145L11.4973 1.05329Z" fill="white" stroke="white" stroke-width="0.3"/>
<path d="M9.9727 20.0071H14.0273C14.4141 20.0071 14.7404 19.6956 14.7404 19.3094V12.7291C14.7404 12.3429 14.4141 12.0314 14.0273 12.0314H9.9727C9.58595 12.0314 9.25956 12.3429 9.25956 12.7291V19.3094C9.25956 19.6956 9.58595 20.0071 9.9727 20.0071ZM13.3142 13.4269V18.6116H10.6858V13.4269H13.3142Z" fill="white" stroke="white" stroke-width="0.3"/>
</svg>
