<svg width="17" height="17" viewBox="0 0 17 17" fill="none" xmlns="http://www.w3.org/2000/svg">
<path fill-rule="evenodd" clip-rule="evenodd" d="M8.4 14.9333C12.0083 14.9333 14.9333 12.0083 14.9333 8.4C14.9333 4.79174 12.0083 1.86667 8.4 1.86667C4.79174 1.86667 1.86667 4.79174 1.86667 8.4C1.86667 12.0083 4.79174 14.9333 8.4 14.9333ZM8.4 16.8C13.0392 16.8 16.8 13.0392 16.8 8.4C16.8 3.76081 13.0392 0 8.4 0C3.76081 0 0 3.76081 0 8.4C0 13.0392 3.76081 16.8 8.4 16.8Z" fill="white"/>
<path fill-rule="evenodd" clip-rule="evenodd" d="M15.8667 8.4C15.8667 8.91547 15.4488 9.33333 14.9333 9.33333H12.1333C11.6179 9.33333 11.2 8.91547 11.2 8.4C11.2 7.88453 11.6179 7.46667 12.1333 7.46667H14.9333C15.4488 7.46667 15.8667 7.88453 15.8667 8.4Z" fill="white"/>
<path fill-rule="evenodd" clip-rule="evenodd" d="M5.6 8.4C5.6 8.91547 5.18213 9.33333 4.66667 9.33333H1.86667C1.3512 9.33333 0.933333 8.91547 0.933333 8.4C0.933333 7.88453 1.3512 7.46667 1.86667 7.46667H4.66667C5.18213 7.46667 5.6 7.88453 5.6 8.4Z" fill="white"/>
<path fill-rule="evenodd" clip-rule="evenodd" d="M8.4 0.933333C8.91547 0.933333 9.33333 1.3512 9.33333 1.86667V4.66667C9.33333 5.18213 8.91547 5.6 8.4 5.6C7.88453 5.6 7.46667 5.18213 7.46667 4.66667V1.86667C7.46667 1.3512 7.88453 0.933333 8.4 0.933333Z" fill="white"/>
<path fill-rule="evenodd" clip-rule="evenodd" d="M8.4 11.2C8.91547 11.2 9.33333 11.6179 9.33333 12.1333V14.9333C9.33333 15.4488 8.91547 15.8667 8.4 15.8667C7.88453 15.8667 7.46667 15.4488 7.46667 14.9333V12.1333C7.46667 11.6179 7.88453 11.2 8.4 11.2Z" fill="white"/>
</svg>
