<svg width="18" height="16" viewBox="0 0 18 16" fill="none" xmlns="http://www.w3.org/2000/svg">
<path d="M9.86979 15.4988C11.5522 14.3851 15.2152 11.7339 16.7902 8.76366C18.8735 4.84526 16.4307 0.937186 13.2012 0.937186C12.5071 0.923887 11.8203 1.07974 11.2 1.39129C10.5796 1.70284 10.0445 2.16071 9.6407 2.72537C9.56682 2.82615 9.47024 2.9081 9.35878 2.96459C9.24732 3.02108 9.12412 3.05052 8.99917 3.05052C8.87421 3.05052 8.75101 3.02108 8.63955 2.96459C8.52809 2.9081 8.43151 2.82615 8.35763 2.72537C7.95386 2.16071 7.41871 1.70284 6.79838 1.39129C6.17806 1.07974 5.49121 0.923887 4.79718 0.937186C1.56763 0.937186 -0.87521 4.84526 1.2057 8.76366C2.78229 11.7339 6.44695 14.3883 8.12616 15.4988C8.38457 15.6703 8.68783 15.7618 8.99797 15.7618C9.30812 15.7618 9.61138 15.6703 9.86979 15.4988Z" fill="white"/>
</svg>
