<svg width="21" height="21" viewBox="0 0 21 21" fill="none" xmlns="http://www.w3.org/2000/svg">
<path d="M14.1575 14.1577L19.46 19.4602" stroke="#C8C8C8" stroke-width="2" stroke-linecap="round"/>
<path d="M9.02125 16.2925C10.4594 16.2925 11.8652 15.8661 13.0609 15.0671C14.2567 14.2681 15.1887 13.1325 15.739 11.8039C16.2893 10.4752 16.4333 9.01317 16.1528 7.60269C15.8722 6.19221 15.1797 4.89662 14.1628 3.87972C13.1459 2.86282 11.8502 2.17028 10.4398 1.88972C9.02927 1.60915 7.56729 1.75316 6.23865 2.3035C4.91 2.85385 3.77437 3.78581 2.9754 4.98156C2.17642 6.17731 1.75 7.58314 1.75 9.02125C1.75 10.9497 2.51604 12.7992 3.87966 14.1628C5.24329 15.5264 7.09279 16.2925 9.02125 16.2925Z" stroke="#C8C8C8" stroke-width="2"/>
</svg>
