<svg width="15" height="15" viewBox="0 0 15 15" fill="none" xmlns="http://www.w3.org/2000/svg">
<path d="M6.84072 12.2948L3.52887 14.0371C3.41547 14.0967 3.28767 14.1233 3.15989 14.1141C3.03212 14.1049 2.90948 14.0601 2.80583 13.9848C2.70218 13.9095 2.62167 13.8067 2.57338 13.6881C2.52509 13.5694 2.51095 13.4396 2.53257 13.3133L3.16516 9.62297C3.18388 9.51328 3.17566 9.40068 3.14121 9.29487C3.10675 9.18906 3.0471 9.0932 2.96739 9.01556L0.286646 6.40224C0.194931 6.31278 0.13007 6.19945 0.0993953 6.07506C0.0687207 5.95068 0.0734555 5.82018 0.113066 5.69834C0.152677 5.5765 0.225583 5.46818 0.323541 5.38562C0.421499 5.30305 0.540603 5.24954 0.667387 5.23113L4.37109 4.6926C4.48152 4.67682 4.58645 4.63438 4.6768 4.56894C4.76714 4.50351 4.84019 4.41706 4.88961 4.31705L6.54665 0.959256C6.60339 0.844467 6.69111 0.747846 6.79988 0.68028C6.90865 0.612714 7.03415 0.576904 7.1622 0.576904C7.29025 0.576904 7.41575 0.612714 7.52452 0.68028C7.6333 0.747846 7.72101 0.844467 7.77776 0.959256L9.43479 4.31705C9.48421 4.41706 9.55726 4.50351 9.6476 4.56894C9.73795 4.63438 9.84288 4.67682 9.95331 4.6926L13.657 5.23113C13.7838 5.24954 13.9029 5.30305 14.0009 5.38562C14.0988 5.46818 14.1717 5.5765 14.2113 5.69834C14.2509 5.82018 14.2557 5.95068 14.225 6.07506C14.1943 6.19945 14.1295 6.31278 14.0378 6.40224L11.357 9.01556C11.2773 9.0932 11.2176 9.18906 11.1832 9.29487C11.1487 9.40068 11.1405 9.51328 11.1592 9.62297L11.7918 13.3133C11.8135 13.4396 11.7993 13.5694 11.751 13.6881C11.7027 13.8067 11.6222 13.9095 11.5186 13.9848C11.4149 14.0601 11.2923 14.1049 11.1645 14.1141C11.0367 14.1233 10.9089 14.0967 10.7955 14.0371L7.48146 12.2948C7.38271 12.2427 7.27274 12.2155 7.16109 12.2155C7.04944 12.2155 6.93947 12.2427 6.84072 12.2948Z"/>
</svg>
