<svg width="18" height="18" viewBox="0 0 18 18" fill="none" xmlns="http://www.w3.org/2000/svg">
<path d="M0.477956 17.7104C0.442734 17.7104 0.407682 17.7056 0.373751 17.6961C0.271862 17.6689 0.184959 17.6023 0.132152 17.511C0.0793462 17.4197 0.064961 17.3112 0.0921604 17.2093L0.740456 14.7935L1.72364 11.1249L8.93205 3.91806L13.8726 8.85783L6.66421 16.0662L2.99557 17.0494L0.581365 17.6969C0.547638 17.7059 0.51287 17.7105 0.477956 17.7104ZM14.8836 7.84681L9.94387 2.90624L11.9134 0.937488C12.0626 0.788363 12.2649 0.70459 12.4758 0.70459C12.6867 0.70459 12.889 0.788363 13.0382 0.937488L16.8564 4.75567C16.9305 4.82894 16.9892 4.9163 17.029 5.0126C17.0892 5.15799 17.1049 5.31798 17.0742 5.47231C17.0435 5.62665 16.9677 5.76841 16.8564 5.87965L14.886 7.84601L14.8836 7.84681Z" fill="white"/>
</svg>
