<svg width="50" height="50" viewBox="0 0 50 50" fill="none" xmlns="http://www.w3.org/2000/svg">
<rect width="50" height="50" rx="12" fill="#FC2A5B"/>
<path d="M32.0519 23.0686C32.0519 21.7006 31.7434 20.374 31.1352 19.1256C30.5504 17.9254 29.7145 16.8487 28.6509 15.9254C27.5923 15.0066 26.3608 14.2857 24.9906 13.7826C23.5755 13.2634 22.0735 13 20.5258 13C18.9782 13 17.4762 13.2634 16.0613 13.7826C14.6911 14.2857 13.4598 15.0066 12.401 15.9254C11.3374 16.8487 10.5016 17.9254 9.91667 19.1256C9.3085 20.3738 9 21.7004 9 23.0686C9 24.7307 9.47316 26.378 10.368 27.8321C11.181 29.153 12.3381 30.3125 13.7257 31.1998L13.4513 36.8963C13.4422 37.0828 13.54 37.258 13.7032 37.3484C13.7774 37.3895 13.8592 37.4099 13.9408 37.4099C14.0388 37.4099 14.1364 37.3805 14.2202 37.3226L20.2597 33.1346C20.3494 33.1363 20.4386 33.1372 20.5261 33.1372C22.0737 33.1372 23.5758 32.8738 24.9906 32.3546C26.3608 31.8516 27.5921 31.1307 28.6509 30.2118C29.7145 29.2885 30.5504 28.2119 31.1352 27.0117C31.7437 25.7632 32.0519 24.4366 32.0519 23.0686V23.0686ZM20.5261 32.1571C20.3962 32.1571 20.2622 32.1549 20.1277 32.1507C20.0225 32.1473 19.9191 32.1779 19.8329 32.238L14.4782 35.9512L14.7188 30.9596C14.7274 30.7798 14.6367 30.6097 14.4826 30.5166C11.6635 28.8137 9.98037 26.0294 9.98037 23.0689C9.98013 18.0572 14.711 13.9801 20.5258 13.9801C26.3407 13.9801 31.0715 18.0572 31.0715 23.0686C31.0715 28.08 26.3407 32.1571 20.5258 32.1571H20.5261Z" fill="white" stroke="white" stroke-width="0.5"/>
<path d="M40.2474 18.0202C39.7676 17.0354 39.082 16.1523 38.2097 15.3954C36.4301 13.8508 34.0682 13 31.5591 13C30.096 13 28.6831 13.2899 27.4062 13.8373C27.7576 14.0419 28.0972 14.2622 28.4246 14.4981C29.3944 14.1641 30.4522 13.9801 31.5591 13.9801C36.2245 13.9801 40.02 17.2454 40.02 21.2591C40.02 23.6275 38.6716 25.8561 36.4129 27.2205C36.2588 27.3136 36.1681 27.4836 36.1767 27.6635L36.3629 31.5247L32.1741 28.6198C32.092 28.563 31.9945 28.5326 31.8948 28.5326C31.8896 28.5326 31.8842 28.5326 31.8791 28.5326C31.7713 28.536 31.6634 28.5377 31.5591 28.5377C31.5056 28.5377 31.4525 28.5368 31.3993 28.536C31.1891 28.8629 30.96 29.1792 30.713 29.4848C30.9928 29.5064 31.2748 29.5179 31.5591 29.5179C31.6208 29.5179 31.6838 29.5174 31.747 29.5162L36.6212 32.8961C36.7047 32.9542 36.8025 32.9834 36.9005 32.9834C36.9821 32.9834 37.064 32.963 37.1382 32.9219C37.3014 32.8314 37.3989 32.656 37.3901 32.4698L37.1701 27.9029C38.2872 27.1795 39.2193 26.2398 39.8772 25.171C40.612 23.977 41.0006 22.6241 41.0006 21.2588C41.0006 20.1349 40.7473 19.0452 40.2477 18.02L40.2474 18.0202Z" fill="white" stroke="white" stroke-width="0.5"/>
</svg>
