<svg width="50" height="50" viewBox="0 0 50 50" fill="none" xmlns="http://www.w3.org/2000/svg">
<rect width="50" height="50" rx="12" fill="#FC2A5B"/>
<g clip-path="url(#clip0_1_158)">
<path d="M16.9353 33.8555H16.019C16.019 30.9353 18.0852 30.4052 19.9086 29.9379C21.9748 29.4123 23.7569 28.9541 23.7569 25.7104H24.6732C24.6732 29.6504 22.158 30.2929 20.1376 30.8095C18.3464 31.2677 16.9307 31.6271 16.9307 33.8555H16.9353Z" fill="white" stroke="white" stroke-width="0.34"/>
<path d="M37.3634 33.8555H36.4471C36.4471 31.6271 35.0315 31.2677 33.2402 30.8095C31.2199 30.2929 28.7047 29.6504 28.7047 25.7104H29.621C29.621 28.9586 31.4031 29.4123 33.4693 29.9379C35.2926 30.4052 37.3588 30.9308 37.3588 33.8555H37.3634Z" fill="white" stroke="white" stroke-width="0.34"/>
<path d="M26.6935 26.847C23.8073 26.847 21.3334 24.484 20.5775 21.0561C19.7391 20.9214 19.1115 20.0453 19.1115 18.9446C19.1115 17.844 19.7391 16.9679 20.5775 16.8331C20.6095 16.6804 20.6508 16.5276 20.6874 16.3794L21.5716 16.613C21.5029 16.8556 21.4479 17.1072 21.4021 17.3633L21.3242 17.8035L20.7928 17.7137C20.3896 17.7137 20.0277 18.2887 20.0277 18.9446C20.0277 19.6006 20.3896 20.1756 20.802 20.1756L21.3242 20.0858L21.4021 20.526C21.9656 23.6708 24.1921 25.9485 26.689 25.9485C29.1858 25.9485 31.4123 23.6663 31.9758 20.526L32.0537 20.0858L32.5485 20.1666C32.9928 20.1666 33.3502 19.5961 33.3502 18.9446C33.3502 18.2932 32.9883 17.7137 32.5759 17.7137L32.5026 17.7272L32.4248 17.2824L32.3744 16.8331C32.4431 16.8197 32.5072 16.8107 32.5759 16.8107C33.5243 16.8107 34.2665 17.7451 34.2665 18.9402C34.2665 20.0363 33.6388 20.9169 32.8004 21.0517C32.0445 24.4795 29.5752 26.8426 26.6844 26.8426L26.6935 26.847Z" fill="white" stroke="white" stroke-width="0.34"/>
<path d="M21.3151 17.0938L20.9257 16.9006C20.4034 16.6445 19.9224 15.8718 19.7529 15.0182C19.5375 13.9175 19.8582 12.8213 20.6554 11.9273C21.9107 10.5391 22.9644 10.3954 25.223 10.3954C25.2367 10.3954 25.2504 10.3954 25.2642 10.3954C25.8918 10.3954 26.3316 10.2875 26.7577 10.1797C27.3395 10.036 27.8939 9.89669 28.6819 10.1123C30.0013 10.4672 30.5648 12.1115 30.6793 12.9292L30.7068 13.1223L30.5831 13.2751C29.4973 14.5824 27.8343 14.6363 26.2263 14.6902C25.2184 14.7217 24.27 14.7531 23.4912 15.0766C22.4238 15.5214 22.0389 15.8448 21.5304 16.7254L21.3151 17.0983V17.0938ZM25.2184 11.2939C23.0148 11.2939 22.3413 11.4197 21.3472 12.5248C20.5683 13.3919 20.5409 14.2679 20.6554 14.852C20.7333 15.2518 20.889 15.5753 21.0402 15.7909C21.5442 15.0676 22.0939 14.6813 23.1339 14.2455C24.0685 13.8546 25.1497 13.8232 26.1988 13.7872C27.5869 13.7423 28.9063 13.7019 29.7401 12.8528C29.6164 12.2822 29.2225 11.1861 28.4436 10.9749C27.8847 10.8266 27.509 10.9165 26.9868 11.0468C26.5515 11.1546 26.0109 11.2894 25.2688 11.2894C25.2596 11.2894 25.2413 11.2894 25.223 11.2894L25.2184 11.2939Z" fill="white" stroke="white" stroke-width="0.34"/>
<path d="M32.1545 18.1766L31.8613 17.7273C31.4307 17.0714 31.1604 16.6132 30.9038 16.1684C30.7709 15.9438 30.6381 15.7191 30.4869 15.4676C29.9967 14.6634 29.7722 13.6211 29.7722 12.9922V12.6912L30.0563 12.5788C30.4915 12.4081 30.9496 12.3452 31.394 12.3991C32.3973 12.5249 33.2998 13.2617 33.6388 14.2366C34.0466 15.4092 33.6022 16.8827 32.5531 17.8217L32.1545 18.1811V18.1766ZM30.7068 13.3156C30.7664 13.8278 30.9588 14.5017 31.2703 15.0093C31.4261 15.2654 31.5589 15.4945 31.6964 15.7236C31.8796 16.0336 32.0675 16.3526 32.3103 16.7434C32.7684 16.128 33.0341 15.2789 32.773 14.5241C32.5485 13.8772 31.9346 13.374 31.2795 13.2887C31.0916 13.2662 30.8992 13.2752 30.7114 13.3156H30.7068Z" fill="white" stroke="white" stroke-width="0.34"/>
<path d="M26.6936 33.1323C24.9389 33.1323 23.3492 32.6201 21.9656 31.6048C21.4892 31.2544 21.0494 30.8455 20.6646 30.3873L21.3701 29.8123C21.7091 30.2121 22.0939 30.576 22.5154 30.8815C23.734 31.7755 25.1405 32.2293 26.6936 32.2293C28.2466 32.2293 29.6531 31.7755 30.8717 30.8815C31.2932 30.576 31.678 30.2121 32.0171 29.8123L32.7226 30.3873C32.3378 30.8455 31.8979 31.2544 31.4215 31.6048C30.0379 32.6156 28.4482 33.1323 26.6936 33.1323Z" fill="white" stroke="white" stroke-width="0.34"/>
</g>
<g clip-path="url(#clip1_1_158)">
<path d="M13.8525 31.9392C12.9559 29.7032 11.9541 27.1942 11.456 25.9396L11.4546 25.9362L11.4546 25.9362C11.2677 25.4552 11.4744 24.8774 11.9795 24.6646C11.9804 24.6642 11.9814 24.6637 11.9825 24.6633C12.0306 24.6425 12.136 24.5969 12.2735 24.577C12.4216 24.5556 12.5849 24.5659 12.7632 24.6222C13.1028 24.7296 13.4776 24.9979 13.9306 25.4862C14.8395 26.4661 16.2325 28.522 18.44 32.7576C18.4729 32.8135 18.4906 32.8627 18.493 32.8692C18.493 32.8692 18.493 32.8692 18.493 32.8692C18.4931 32.8696 18.4932 32.8698 18.4932 32.8698L18.0267 33.0499C18.2006 33.4873 18.2503 33.9537 18.182 34.4072L13.8525 31.9392ZM13.8525 31.9392C13.5796 31.822 13.3026 31.7031 13.0245 31.5836C11.1092 30.761 9.14134 29.9157 8.09089 29.467L8.09089 29.467L8.08696 29.4653C7.58124 29.2544 7.02129 29.5074 6.82197 30.0044L6.82197 30.0044L6.82122 30.0063C6.76925 30.1374 6.67002 30.4011 6.78356 30.7846C6.88479 31.1265 7.13942 31.5121 7.61252 31.9836C8.56037 32.9283 10.5493 34.376 14.6474 36.6674L14.673 36.6816L14.6788 36.684C14.6819 36.6858 14.6853 36.6876 14.6889 36.6895C14.7012 36.6961 14.7185 36.7048 14.7395 36.7137C15.0322 36.8391 15.3328 36.9116 15.6328 36.9365L15.7936 37.511C15.7354 37.5613 15.6783 37.6145 15.6227 37.6706L15.6227 37.6706L15.6182 37.6753C15.089 38.2235 14.7981 38.9533 14.7981 39.7208C14.7981 40.2073 14.915 40.6786 15.1354 41.0982C14.962 41.2035 14.8201 41.3634 14.7376 41.5603C14.5319 42.0511 14.7521 42.6242 15.2389 42.8431L15.2389 42.843C15.3704 42.9023 15.8824 43.1001 16.4973 43.1371L16.5123 43.138H16.5274C16.5403 43.138 16.5541 43.1385 16.5778 43.1393L16.5803 43.1394C16.6014 43.1402 16.6316 43.1413 16.664 43.1413C17.6026 43.1413 18.3123 42.6633 18.5971 42.4363C18.9727 42.2952 19.3224 42.0702 19.6189 41.763C20.4165 40.9367 20.6306 39.733 20.2614 38.7041C20.5722 38.8208 20.8995 38.8795 21.2272 38.8795C21.9522 38.8795 22.6796 38.5921 23.2266 38.0217C23.7557 37.4733 24.0461 36.7436 24.0461 35.9736C24.0461 35.2048 23.7566 34.4812 23.2322 33.9314M13.8525 31.9392L23.2322 33.9314M23.2322 33.9314L23.2323 33.9314C23.2322 33.9313 23.2322 33.9313 23.2322 33.9313L23.2322 33.9314ZM19.0458 34.1446L18.7113 34.0442L23.2273 33.9262L23.226 33.9249L23.226 33.9249C22.122 32.788 20.3289 32.7943 19.2315 33.9314C19.1652 34.0001 19.1033 34.0713 19.0458 34.1446ZM21.8515 36.6492L21.8088 36.6935C21.4639 37.0039 20.941 36.9906 20.6086 36.6487C20.4396 36.4733 20.3427 36.2351 20.3427 35.9801C20.3427 35.7247 20.4398 35.4864 20.6092 35.3109C20.7758 35.1382 21.0123 35.0423 21.2303 35.0423C21.451 35.0423 21.6773 35.1304 21.8515 35.3109C22.0209 35.4864 22.1179 35.7247 22.1179 35.9801C22.1179 36.238 22.0213 36.4734 21.8515 36.6492ZM18.3075 39.1243C18.5957 39.4934 18.5758 40.0478 18.2434 40.3942C17.9021 40.7498 17.3473 40.7514 16.9985 40.3927C16.8294 40.2173 16.7325 39.9791 16.7325 39.724C16.7325 39.4661 16.8281 39.2297 16.9969 39.0569C17.1709 38.8788 17.3913 38.7862 17.6201 38.7862C17.8532 38.7862 18.0731 38.8785 18.2392 39.0527L18.3075 39.1243ZM14.8887 34.5177C14.8948 34.533 14.9009 34.5482 14.907 34.5633C14.8209 34.5139 14.7347 34.4642 14.6485 34.4142C14.7297 34.4492 14.8098 34.4837 14.8887 34.5177ZM16.3716 33.0229C16.3557 32.9833 16.3398 32.9435 16.3237 32.9033C16.3467 32.9462 16.3697 32.9891 16.3926 33.0319C16.3856 33.0289 16.3786 33.0259 16.3716 33.0229ZM18.5842 36.9862C18.2787 36.8718 17.9524 36.8117 17.617 36.8117C17.6128 36.8117 17.6087 36.8117 17.6046 36.8117L17.5099 36.4732C17.6669 36.3527 17.8115 36.217 17.9418 36.068C17.9941 36.0158 18.0441 35.9615 18.0917 35.9058L18.4085 36.0007C18.4115 36.3422 18.4717 36.6745 18.5842 36.9862Z" fill="white" stroke="#FC2A5B"/>
</g>
<defs>
<clipPath id="clip0_1_158">
<rect width="21.3444" height="23.8555" fill="white" transform="translate(16.019 10)"/>
</clipPath>
<clipPath id="clip1_1_158">
<rect width="16.3222" height="17.5777" fill="white" transform="translate(7.23022 25.0667)"/>
</clipPath>
</defs>
</svg>
