<svg width="50" height="50" viewBox="0 0 50 50" fill="none" xmlns="http://www.w3.org/2000/svg">
<rect width="50" height="50" rx="12" fill="#FC2A5B"/>
<g clip-path="url(#clip0_1_120)">
<path d="M16.0003 36.0756H15.155C15.155 34.0757 17.0906 33.2338 18.9628 32.4207C20.8984 31.5829 22.7241 30.7863 22.7241 28.8521H23.5694C23.5694 31.3201 21.3041 32.3016 19.3094 33.1681C17.5344 33.9401 16.0003 34.6054 16.0003 36.0715V36.0756Z" fill="white" stroke="white" stroke-width="0.34"/>
<path d="M34.8449 36.0756H33.9997C33.9997 34.6096 32.4655 33.9443 30.6905 33.1722C28.6916 32.3058 26.4305 31.3243 26.4305 28.8562H27.2758C27.2758 30.7904 29.1015 31.583 31.0371 32.4248C32.9093 33.238 34.8449 34.0798 34.8449 36.0797V36.0756Z" fill="white" stroke="white" stroke-width="0.34"/>
<path d="M32.1063 33.1106H31.261V20.8278C31.261 17.4727 28.4549 14.7459 25.0021 14.7459C21.5493 14.7459 18.7431 17.4727 18.7431 20.8278V33.1106H17.8978V20.8278C17.8936 17.0209 21.0844 13.9246 25.0021 13.9246C28.9197 13.9246 32.1063 17.0209 32.1063 20.8278V33.1106Z" fill="white" stroke="white" stroke-width="0.34"/>
<path d="M25.002 29.6735C22.3395 29.6735 20.0574 27.5134 19.3601 24.38C18.5867 24.2568 18.0077 23.4519 18.0077 22.4499C18.0077 21.4479 18.6332 20.5814 19.4488 20.5116C20.1123 19.3166 21.283 18.8197 22.4198 18.3392C23.7088 17.793 24.926 17.2797 25.45 15.7644L25.9487 14.3188L26.2657 15.8137C26.5995 17.3988 27.5589 17.9286 28.5732 18.4953C29.4142 18.9634 30.2805 19.4439 30.6229 20.5198C31.4047 20.6348 31.9922 21.4397 31.9922 22.4499C31.9922 23.4602 31.4132 24.2568 30.6398 24.38C29.9425 27.5134 27.6645 29.6735 24.9978 29.6735H25.002ZM20.0532 23.493L20.125 23.8955C20.6448 26.7701 22.6988 28.8521 25.002 28.8521C27.3053 28.8521 29.3592 26.766 29.8791 23.8955L29.9509 23.493L30.4073 23.5669C30.8173 23.5669 31.1511 23.0454 31.1511 22.4499C31.1511 21.8545 30.8173 21.3247 30.4369 21.3247L29.9594 21.4069L29.8833 21.0085C29.7016 20.0599 29.0211 19.6821 28.159 19.2057C27.3349 18.7458 26.3502 18.1996 25.7797 16.9964C25.0189 18.138 23.8356 18.639 22.7622 19.0907C21.6464 19.563 20.5941 20.0065 20.0954 21.0989L19.9602 21.3904L19.5587 21.3206C19.1868 21.3206 18.8529 21.8463 18.8529 22.4458C18.8529 23.0454 19.1868 23.571 19.5672 23.571L20.0489 23.4889L20.0532 23.493Z" fill="white" stroke="white" stroke-width="0.34"/>
<path d="M29.0296 35.5952H20.9702L19.9475 32.4044L20.7547 32.158L21.5915 34.7739H28.4083L29.2451 32.158L30.0523 32.4044L29.0296 35.5952Z" fill="white" stroke="white" stroke-width="0.34"/>
</g>
<path fill-rule="evenodd" clip-rule="evenodd" d="M15.5694 10.6593H9.0061V9.34668H15.5694V10.6593Z" fill="white"/>
<path fill-rule="evenodd" clip-rule="evenodd" d="M9.0061 15.9247L9.0061 9.36142L10.3188 9.36142L10.3188 15.9247H9.0061Z" fill="white"/>
<path fill-rule="evenodd" clip-rule="evenodd" d="M10.3127 34.0842V40.6475H9V34.0842H10.3127Z" fill="white"/>
<path fill-rule="evenodd" clip-rule="evenodd" d="M15.578 40.6475L9.01474 40.6475L9.01474 39.3348L15.578 39.3348V40.6475Z" fill="white"/>
<path fill-rule="evenodd" clip-rule="evenodd" d="M39.6873 15.9158V9.35254H41V15.9158H39.6873Z" fill="white"/>
<path fill-rule="evenodd" clip-rule="evenodd" d="M34.422 9.35254L40.9853 9.35254L40.9853 10.6652L34.422 10.6652V9.35254Z" fill="white"/>
<path fill-rule="evenodd" clip-rule="evenodd" d="M34.4315 39.3407H40.9948V40.6533H34.4315V39.3407Z" fill="white"/>
<path fill-rule="evenodd" clip-rule="evenodd" d="M40.9948 34.0753L40.9948 40.6386L39.6821 40.6386L39.6821 34.0753H40.9948Z" fill="white"/>
<defs>
<clipPath id="clip0_1_120">
<rect width="19.6898" height="22.1511" fill="white" transform="translate(15.155 13.9246)"/>
</clipPath>
</defs>
</svg>
