<svg width="52" height="50" viewBox="0 0 52 50" fill="none" xmlns="http://www.w3.org/2000/svg">
<rect width="52" height="50" fill="#F5F5F5"/>
<g clip-path="url(#clip0_0_1)" filter="url(#filter0_d_0_1)">
<rect width="375" height="812" transform="translate(-291 -524)" fill="#191919"/>
<g filter="url(#filter1_d_0_1)">
<rect x="-12" y="-13" width="76" height="76" fill="#0C0C0C"/>
</g>
<g style="mix-blend-mode:luminosity" opacity="0.7" clip-path="url(#clip1_0_1)">
<path d="M14.9965 14.7084C13.5556 20.0867 12.4942 29.7392 11.7238 35.2431C11.6411 35.8337 11.5697 36.4528 11.798 37.0064C12.0519 37.6255 12.654 38.0621 13.3045 38.2846C13.955 38.5072 14.6569 38.5385 15.3474 38.55C15.8039 38.5585 16.2719 38.5557 16.7056 38.4102C17.2277 38.2333 17.65 37.8623 18.1122 37.5627C18.8112 37.1091 19.6073 36.8152 20.3092 36.3672C22.218 35.1518 23.2052 32.9434 23.6218 30.7721C23.6988 30.3698 23.7587 29.9475 23.6361 29.5537C23.5105 29.1628 23.151 28.8119 22.7259 28.8176" fill="#403333"/>
<path d="M34.8578 11.6697C34.9577 15.7926 36.487 17.2962 37.3858 21.2908C37.537 21.9613 37.674 22.6375 37.7567 23.3223C37.9393 24.8659 37.8337 26.4351 37.8252 27.9959C37.8223 28.7491 37.8451 29.5337 38.1362 30.21C38.4272 30.8862 39.0578 31.4283 39.7083 31.3199C39.3089 32.4726 38.5585 33.4598 37.6169 34.0704C37.323 34.2616 37.0034 34.4185 36.6696 34.4556C36.002 34.5269 35.3628 34.1103 34.8607 33.6025C33.8221 32.5496 33.1687 31.0574 32.872 29.5052C32.5752 27.9531 32.6095 26.3381 32.7921 24.7631C32.8577 24.1839 32.9547 23.5791 33.28 23.1282" fill="#403333"/>
<path d="M16.2606 13.0021C15.3704 17.2334 14.8654 21.5532 14.7513 25.8873C14.7284 26.7746 14.7227 27.6791 14.9653 28.5294C15.2791 29.6279 15.9839 30.5495 16.7086 31.3997C17.4847 32.3071 18.3178 33.183 19.3193 33.7964C20.8458 34.7323 22.6519 34.9948 24.4094 35.1432C26.1727 35.2944 27.9446 35.3515 29.7165 35.3144C30.9091 35.2887 32.1531 35.2059 33.1917 34.5839C34.2274 33.9648 34.9493 32.8606 35.3659 31.6736C35.7796 30.4896 35.9165 29.217 36.0135 27.9559C36.179 25.8188 36.2389 23.6703 36.1961 21.5247C36.1648 20.0182 36.082 18.5031 35.7168 17.048C35.3601 15.6299 34.7467 14.306 34.1333 12.9907C33.3543 11.313 32.5554 9.60676 31.3485 8.24292" fill="#403333"/>
<path d="M51.0158 43.4005C50.9872 43.1608 50.9073 42.9211 50.8274 42.6872C50.3852 41.4061 49.8859 40.1364 49.3295 38.8838C49.1241 38.4216 48.9072 37.9537 48.6362 37.5143C48.4992 37.2946 48.3508 37.0806 48.1825 36.878C48.0142 36.6754 47.8287 36.4842 47.6176 36.3045C46.7587 35.5826 45.5832 35.1718 44.4419 34.778C41.0608 33.6139 37.6798 32.4498 34.2987 31.2828C33.0632 30.8577 32.0361 30.2899 30.8006 29.8647L20.4348 30.0074C19.1937 30.4354 17.9525 30.8634 16.7114 31.2885C13.336 32.4526 9.96063 33.6139 6.58525 34.778C5.44396 35.1718 4.26843 35.5826 3.40961 36.3045C3.19847 36.4814 3.01016 36.6754 2.84467 36.878C2.67633 37.0806 2.52796 37.2946 2.39101 37.5143C2.11995 37.9537 1.9031 38.4216 1.69767 38.8838C1.14415 40.1364 0.64483 41.4061 0.199726 42.6872C0.119836 42.9211 0.0399452 43.1608 0.0114129 43.4005C0.00570646 43.449 0.00285323 43.4975 0 43.546C0 43.643 0.00570646 43.7372 0.0256791 43.8342C0.102716 44.1937 0.359507 44.5161 0.659096 44.79C0.924446 45.0354 1.22404 45.2522 1.5436 45.4491C2.08 45.7772 2.67348 46.0454 3.27551 46.2908C3.63501 46.4392 4.00023 46.5761 4.3683 46.7102C4.41395 46.7273 4.4596 46.7445 4.50525 46.7587C4.88188 46.8928 5.26136 47.0212 5.64369 47.1439C8.7851 48.1454 12.1319 48.7303 15.4702 49.1811C18.3605 49.572 21.2879 49.8716 24.2182 49.9971H26.8061C29.7364 49.8716 32.6638 49.572 35.5541 49.1811C38.7925 48.7417 42.0338 48.1796 45.0896 47.2352C45.5375 47.0954 45.9798 46.9499 46.4192 46.7958C46.4335 46.7901 46.4449 46.7873 46.4591 46.7815C46.8928 46.6275 47.3237 46.4648 47.7459 46.2908C48.348 46.0454 48.9415 45.7772 49.4779 45.4491C49.8003 45.2522 50.097 45.0354 50.3624 44.79C50.6619 44.5132 50.9187 44.1937 50.9958 43.8342C51.0158 43.74 51.0243 43.643 51.0215 43.546C51.0215 43.4975 51.0158 43.449 51.01 43.4005H51.0158Z" fill="#3D5A8A"/>
<path d="M29.1999 22.646C29.0972 24.3066 29.1286 25.99 29.5765 27.605C30.0245 29.2199 31.1087 29.8248 32.5096 30.9261C32.5952 30.9347 31.5224 34.8921 25.057 34.875H25.0855C21.382 34.8778 18.1465 33.5825 18.1094 30.8947C19.5103 29.7962 20.118 29.217 20.566 27.6021C21.014 25.9872 21.0482 24.3038 20.9426 22.6432" fill="#E3B7A1"/>
<path d="M16.5629 14.9994C16.1578 14.6114 15.5529 14.4288 14.9908 14.5229C14.4287 14.6171 13.9237 14.988 13.6812 15.4845C13.4244 16.0037 13.4558 16.6258 13.6755 17.1565C13.8952 17.6872 14.2918 18.1408 14.7397 18.5174C15.1534 18.8655 15.6185 19.1537 16.115 19.3791C16.4973 19.5503 16.9053 19.6873 17.2277 19.9469" fill="#EDBFA9"/>
<path d="M33.7166 8.78789C34.3415 10.6311 34.4756 12.6312 34.273 14.5628C34.1503 15.7241 33.8193 16.854 33.4655 17.9696C32.8464 19.9183 32.1388 21.8671 30.9575 23.5562C29.7763 25.2453 28.0644 26.6691 26.0129 27.157C25.1626 27.3596 24.2553 27.3967 23.4108 27.1684C22.5805 26.943 21.85 26.4779 21.131 26.0185C20.2779 25.4707 19.4077 24.9115 18.7771 24.1326C18.0067 23.1824 17.6558 21.9869 17.3562 20.8171C16.3604 16.9282 16.1778 14.2319 15.9895 10.2288C16.0979 8.708 16.797 4.30261 23.7018 4.30261C31.0289 4.30261 33.4855 8.11453 33.7138 8.79074L33.7166 8.78789Z" fill="#EDBFA9"/>
<path d="M21.8844 16.0494C21.8844 16.4546 21.619 16.7827 21.2937 16.7827C20.9685 16.7827 20.7031 16.4546 20.7031 16.0494C20.7031 15.6443 20.9685 15.3162 21.2937 15.3162C21.619 15.3162 21.8844 15.6443 21.8844 16.0494Z" fill="#0A0807"/>
<path d="M28.8861 16.0494C28.8861 16.4546 28.6207 16.7827 28.2955 16.7827C27.9702 16.7827 27.7048 16.4546 27.7048 16.0494C27.7048 15.6443 27.9702 15.3162 28.2955 15.3162C28.6207 15.3162 28.8861 15.6443 28.8861 16.0494Z" fill="#0A0807"/>
<path d="M21.3793 26.8403C21.8358 27.5736 22.5891 28.13 23.3909 28.4524C23.6904 28.5722 23.9957 28.6835 24.3124 28.7377C24.9202 28.8433 25.5479 28.7434 26.1242 28.5294C26.4495 28.4096 26.7605 28.2527 27.063 28.0815C27.2941 27.9531 27.5223 27.8133 27.7135 27.6306C27.9161 27.4366 28.0702 27.197 28.2214 26.9601C28.3926 26.6919 28.5666 26.4152 28.618 26.1013C27.9218 26.4951 27.2028 26.8517 26.441 27.0942C25.6791 27.3368 24.8717 27.4595 24.0756 27.3824C23.3937 27.3139 22.7346 27.0999 22.0869 26.8688C21.7845 26.7604 21.4678 26.6377 21.2766 26.3838C21.2766 26.4637 21.3765 26.7576 21.3793 26.8346" fill="#BD9886"/>
<path d="M24.0128 19.1081C23.97 19.1081 23.93 19.091 23.9015 19.0596L23.2852 18.3663C23.2595 18.3378 23.2139 18.2864 23.2082 18.2094C23.1996 18.1009 23.2767 18.0296 23.3109 17.9954C23.7103 17.6102 23.9643 17.0367 24.0214 16.3804C24.0784 15.7385 23.9529 15.0936 23.8216 14.5487C23.8045 14.4716 23.853 14.3946 23.9329 14.3775C24.0128 14.3603 24.0927 14.4089 24.1098 14.483C24.2468 15.048 24.3752 15.7185 24.3152 16.4004C24.2525 17.1251 23.97 17.7614 23.5192 18.1951C23.5192 18.1951 23.5163 18.1979 23.5135 18.2008L24.1241 18.8742C24.1783 18.9341 24.1697 19.0254 24.1069 19.0767C24.0784 19.0996 24.0442 19.111 24.0099 19.111L24.0128 19.1081Z" fill="#BD9886"/>
<path d="M14.7826 15.1906C15.1393 15.0907 15.8668 15.3076 16.1522 15.5387C15.7385 15.6015 15.3247 15.6728 14.9139 15.7527C14.6885 15.7983 14.4231 15.8782 14.3603 16.0951C14.3347 16.1807 14.3489 16.2691 14.3603 16.3547C14.3832 16.5088 14.4174 16.68 14.5458 16.777C14.6771 16.8769 14.8625 16.8597 15.028 16.8398C15.2905 16.8084 15.5501 16.777 15.8126 16.7456C15.7213 16.9111 15.5416 17.0309 15.3476 17.0566C15.2905 17.0652 15.2249 17.068 15.1821 17.1051C15.1393 17.1451 15.1364 17.2107 15.1393 17.2678C15.1821 17.8869 15.6871 18.4519 16.3177 18.5802C15.8269 18.6744 15.3076 18.4804 14.9367 18.158C14.5658 17.8327 14.3261 17.3904 14.1578 16.9368C14.0493 16.6429 13.8125 16.0666 14.0665 15.7983C14.2747 15.5786 14.4944 15.2676 14.7798 15.1878L14.7826 15.1906Z" fill="#D4AB97"/>
<path d="M19.0595 19.9355C19.9372 19.9355 20.6487 19.5446 20.6487 19.0624C20.6487 18.5802 19.9372 18.1893 19.0595 18.1893C18.1817 18.1893 17.4702 18.5802 17.4702 19.0624C17.4702 19.5446 18.1817 19.9355 19.0595 19.9355Z" fill="#E3A1A1"/>
<path d="M30.6607 14.2747C30.6351 14.2747 30.6094 14.269 30.5866 14.2547C29.9018 13.8667 29.0886 13.6755 28.2926 13.7154C27.8931 13.7354 27.6106 13.8153 27.4052 13.9694C27.3396 14.0179 27.2483 14.0065 27.1969 13.9437C27.1456 13.8809 27.157 13.7925 27.2226 13.744C27.4765 13.5528 27.8104 13.4529 28.2754 13.4301C29.1257 13.3873 29.9988 13.5928 30.7349 14.0093C30.8063 14.0493 30.8291 14.1377 30.7863 14.2033C30.7578 14.249 30.7092 14.2747 30.6579 14.2747H30.6607Z" fill="#54433B"/>
<path d="M18.8883 14.2747C18.8369 14.2747 18.7884 14.249 18.7599 14.2033C18.7199 14.1349 18.7428 14.0493 18.8112 14.0093C19.5474 13.5928 20.4176 13.3902 21.2707 13.4301C21.7358 13.4529 22.0696 13.5528 22.3236 13.744C22.3892 13.7925 22.4006 13.8809 22.3493 13.9437C22.2979 14.0065 22.2066 14.0179 22.141 13.9694C21.9355 13.8153 21.6559 13.7354 21.2536 13.7154C20.4604 13.6755 19.6444 13.8667 18.9596 14.2547C18.9368 14.269 18.9111 14.2747 18.8854 14.2747H18.8883Z" fill="#54433B"/>
<path d="M29.7279 20.0697C30.6056 20.0697 31.3172 19.6788 31.3172 19.1966C31.3172 18.7144 30.6056 18.3235 29.7279 18.3235C28.8502 18.3235 28.1387 18.7144 28.1387 19.1966C28.1387 19.6788 28.8502 20.0697 29.7279 20.0697Z" fill="#E3A1A1"/>
<path d="M27.4537 7.53538C27.4537 7.53538 28.8118 9.64106 31.1829 11.9607C31.7335 12.5 33.0318 15.8868 33.2572 16.1892C33.28 16.2178 34.1531 15.8525 34.31 15.6671C34.4127 15.5444 34.3072 15.4246 34.3271 15.4274C34.3614 15.4331 34.3756 15.4531 34.3956 15.4274C34.7351 14.9224 34.8407 14.3147 34.9149 13.7183C35.146 11.8609 34.7665 10.4057 33.8506 8.75656C33.6195 8.33999 33.6852 7.43551 33.4027 7.05033C33.0375 6.54816 33.3199 6.41406 32.9547 5.91474C32.7579 5.64369 31.9076 5.00456 31.6337 4.80198C31.3912 4.62223 31.1001 4.79628 30.8148 4.68785C29.9788 4.37685 29.0658 4.09153 28.2041 4.32549C27.4451 4.53093 26.8631 4.81625 26.3181 5.36407" fill="#403333"/>
<path d="M29.2657 8.75656C29.2657 8.75656 20.8087 9.83222 19.2965 12.0948C17.9697 14.0778 16.6943 15.9781 16.5888 16.1207C16.5659 16.1493 15.4189 14.7769 15.399 14.7483C15.0594 14.2433 15.0081 14.2462 14.9339 13.6527C14.7028 11.7952 15.0338 9.82366 15.9468 8.17164C16.1779 7.75507 16.4604 6.79924 16.74 6.41405C17.1052 5.91189 16.8227 5.77778 17.1879 5.27847C17.3848 5.00741 18.2351 4.36829 18.509 4.16571C18.7515 3.98596 19.3364 4.44533 19.6246 4.3369C20.4606 4.0259 21.3736 3.74058 22.2353 3.97454C22.9943 4.17998 22.9857 4.75062 23.5307 5.29844" fill="#403333"/>
<path d="M27.2426 7.56958C27.0714 7.07027 26.6462 6.67652 26.1583 6.56239C25.699 6.45682 25.2253 6.58236 24.7574 6.61945C24.1126 6.67081 23.4649 6.55383 22.8172 6.59378C21.8471 6.65084 20.9255 7.05029 20.0268 7.44404C19.867 6.47109 20.0581 5.74922 20.5575 4.91322C21.0539 4.07723 21.85 3.13281 22.7487 2.8646C23.6133 2.60496 24.4065 1.72617 25.2967 1.86027C26.0071 1.96869 26.2668 3.07289 26.8831 3.46093C28.1356 4.25413 29.2798 5.83767 29.7477 7.29852" fill="#523D3D"/>
<path d="M32.5868 14.9965C33.0433 14.5343 33.7253 14.3175 34.3615 14.4287C34.995 14.54 35.5656 14.9823 35.8424 15.5729C36.1305 16.1892 36.0963 16.931 35.8481 17.5644C35.5998 18.1979 35.1519 18.7371 34.644 19.1851C34.1761 19.5988 33.6511 19.944 33.0918 20.2094C32.661 20.4148 32.2016 20.5746 31.8364 20.8856" fill="#EDBFA9"/>
<path d="M34.6183 15.3247C34.216 15.2049 33.3943 15.4645 33.0719 15.7384C33.5398 15.8126 34.0077 15.8982 34.4699 15.9952C34.7267 16.0494 35.0235 16.1464 35.0948 16.4004C35.1233 16.5002 35.1062 16.6086 35.0948 16.7114C35.0663 16.8968 35.0292 17.0994 34.8865 17.2135C34.7381 17.3305 34.527 17.3134 34.3415 17.2877C34.0477 17.2506 33.7509 17.2135 33.457 17.1736C33.5626 17.3733 33.7623 17.5131 33.982 17.5445C34.0477 17.5531 34.1218 17.5559 34.1675 17.6044C34.216 17.6529 34.2189 17.73 34.2132 17.7984C34.1646 18.5374 33.594 19.2079 32.8835 19.362C33.4371 19.4733 34.0248 19.245 34.4443 18.857C34.8637 18.469 35.1347 17.944 35.3231 17.4018C35.4457 17.0509 35.714 16.3633 35.4258 16.0466C35.189 15.7841 34.9407 15.416 34.6212 15.3218L34.6183 15.3247Z" fill="#D4A58E"/>
<path d="M34.9691 12.2717C35.166 10.1118 33.8078 7.78643 33.1316 5.74638C32.7093 4.46528 32.404 3.50374 31.4568 2.54505C29.7477 0.813141 27.9045 0.359478 25.639 0.0684485C24.4892 -0.0799194 23.8158 0.0627421 22.6602 0.0684485C20.255 0.0798614 17.8297 2.33962 16.7826 4.70495C16.5258 5.28701 16.3318 5.58659 16.1549 6.20004C15.7954 7.44975 15.4929 8.728 15.3931 10.0348C16.9195 9.17881 18.4774 8.31428 20.1722 8.00899C22.8428 7.52964 25.5477 8.49689 28.0215 9.69525C28.4894 9.92065 29.0315 10.1575 29.4909 9.91209C29.7363 9.78084 29.916 9.52691 30.1728 9.42704C30.4096 9.33574 30.6693 9.3928 30.9146 9.45272C32.0588 9.72378 32.9946 10.049 33.7479 11.0277" fill="#B83026"/>
<path d="M31.8935 5.3954C32.1731 6.39403 32.196 7.45258 32.1674 8.49401C32.156 8.87634 32.1303 9.28436 31.9078 9.58394C31.8279 9.35569 31.8621 9.10175 31.885 8.85922C31.9706 7.94334 31.845 7.01889 31.6881 6.11442C31.6225 5.73494 31.5511 5.3526 31.4227 4.99024C31.3172 4.69636 31.1745 4.42245 31.0318 4.14569C30.7893 3.68061 30.5497 3.21268 30.29 2.75617C30.0332 2.30536 29.7137 1.89449 29.4597 1.44653C29.6566 1.47507 29.8763 1.88022 29.999 2.0343C30.1901 2.27682 30.3813 2.52505 30.5611 2.77899C30.9234 3.28401 31.2544 3.81757 31.5169 4.38821C31.6681 4.71348 31.7937 5.05016 31.8907 5.3954H31.8935Z" fill="#80211A"/>
<path d="M18.315 5.3954C18.0353 6.39403 18.0125 7.45258 18.0411 8.49401C18.0525 8.87634 18.0781 9.28436 18.3007 9.58394C18.3806 9.35569 18.3463 9.10175 18.3235 8.85922C18.2379 7.94334 18.3635 7.01889 18.5204 6.11442C18.586 5.73494 18.6573 5.3526 18.7857 4.99024C18.8913 4.69636 19.034 4.42245 19.1766 4.14569C19.4192 3.68061 19.6588 3.21268 19.9185 2.75617C20.1753 2.30536 20.4948 1.89449 20.7488 1.44653C20.5519 1.47507 20.3322 1.88022 20.2095 2.0343C20.0155 2.27682 19.8272 2.52505 19.6474 2.77899C19.2851 3.28401 18.9541 3.81757 18.6916 4.38821C18.5404 4.71348 18.4148 5.05016 18.3178 5.3954H18.315Z" fill="#80211A"/>
<path d="M25.6677 2.92165C25.6906 4.47381 25.6192 6.13153 24.7661 7.39266C25.0172 6.77636 25.1941 6.12583 25.294 5.46388C25.4594 4.37109 25.4138 3.25262 25.3653 2.14557C25.351 1.81174 25.3025 1.44653 25.3339 1.11841C25.7533 1.30672 25.6649 2.53076 25.6649 2.92165H25.6677Z" fill="#80211A"/>
<path d="M29.6366 13.4786C29.4483 13.7155 29.2542 13.958 29.0174 14.1206C28.5409 14.4459 27.9475 14.4002 27.451 14.1606C26.9545 13.9209 26.538 13.5043 26.1271 13.0963C25.682 12.6512 25.2369 12.2089 24.7918 11.7638C24.2154 11.1903 23.6362 10.6111 22.9828 10.1746C21.4792 9.16741 19.6018 8.97339 17.9355 9.6496C16.0923 10.3971 14.523 12.1433 12.6028 12.4543C12.5058 11.6554 13.0165 10.9336 13.4901 10.3429C14.1749 9.48411 14.8768 8.61103 15.7413 8.03182C17.1309 7.09881 18.78 7.03034 20.3522 7.05031C22.241 7.07028 24.1384 7.18441 25.973 7.67231C26.7691 7.88345 27.5509 8.16592 28.3326 8.44554C29.3284 8.80505 33.1746 10.012 33.38 10.6197C33.4799 10.9136 31.3314 11.3444 31.1488 11.5755C30.6438 12.2118 30.1387 12.8481 29.6337 13.4872L29.6366 13.4786Z" fill="#EB4236"/>
<path d="M24.3323 27.4025C18.7429 27.4025 16.4974 20.5889 17.2307 19.947C17.9639 19.305 23.9186 17.3448 23.9186 17.3448C23.9186 17.3448 23.9871 17.2507 25.1798 17.3448C26.2126 17.4276 31.0574 19.7587 32.3414 20.3835C32.5297 20.4748 32.6295 20.6831 32.581 20.8885C32.2586 22.2353 30.6922 27.4025 24.3352 27.4025H24.3323Z" fill="white"/>
<path d="M19.0597 19.7187C19.034 19.7187 19.0055 19.7101 18.9826 19.6958C17.4818 18.72 15.1137 14.7398 15.0138 14.5714C14.9739 14.503 14.9967 14.4174 15.0652 14.3746C15.1336 14.3318 15.2192 14.3574 15.262 14.4259C15.2849 14.4659 17.6958 18.5175 19.1396 19.4562C19.2052 19.499 19.2252 19.5874 19.1824 19.653C19.1538 19.6958 19.1082 19.7187 19.0625 19.7187H19.0597Z" fill="white"/>
<path d="M30.5411 20.0896C30.4926 20.0896 30.4469 20.0639 30.4184 20.0211C30.3784 19.9527 30.3984 19.8671 30.4669 19.8243C32.6667 18.4947 32.8065 14.7398 32.8065 14.7027C32.8065 14.6228 32.8607 14.5629 32.9549 14.5658C33.0348 14.5658 33.0947 14.6342 33.0918 14.7141C33.0861 14.8739 32.9463 18.6602 30.6124 20.0725C30.5896 20.0868 30.5639 20.0925 30.5382 20.0925L30.5411 20.0896Z" fill="white"/>
</g>
</g>
<defs>
<filter id="filter0_d_0_1" x="-295" y="-524" width="383" height="820" filterUnits="userSpaceOnUse" color-interpolation-filters="sRGB">
<feFlood flood-opacity="0" result="BackgroundImageFix"/>
<feColorMatrix in="SourceAlpha" type="matrix" values="0 0 0 0 0 0 0 0 0 0 0 0 0 0 0 0 0 0 127 0" result="hardAlpha"/>
<feOffset dy="4"/>
<feGaussianBlur stdDeviation="2"/>
<feComposite in2="hardAlpha" operator="out"/>
<feColorMatrix type="matrix" values="0 0 0 0 0 0 0 0 0 0 0 0 0 0 0 0 0 0 0.25 0"/>
<feBlend mode="normal" in2="BackgroundImageFix" result="effect1_dropShadow_0_1"/>
<feBlend mode="normal" in="SourceGraphic" in2="effect1_dropShadow_0_1" result="shape"/>
</filter>
<filter id="filter1_d_0_1" x="-22" y="-19" width="96" height="96" filterUnits="userSpaceOnUse" color-interpolation-filters="sRGB">
<feFlood flood-opacity="0" result="BackgroundImageFix"/>
<feColorMatrix in="SourceAlpha" type="matrix" values="0 0 0 0 0 0 0 0 0 0 0 0 0 0 0 0 0 0 127 0" result="hardAlpha"/>
<feOffset dy="4"/>
<feGaussianBlur stdDeviation="5"/>
<feComposite in2="hardAlpha" operator="out"/>
<feColorMatrix type="matrix" values="0 0 0 0 0 0 0 0 0 0 0 0 0 0 0 0 0 0 0.25 0"/>
<feBlend mode="normal" in2="BackgroundImageFix" result="effect1_dropShadow_0_1"/>
<feBlend mode="normal" in="SourceGraphic" in2="effect1_dropShadow_0_1" result="shape"/>
</filter>
<clipPath id="clip0_0_1">
<rect width="375" height="812" fill="white" transform="translate(-291 -524)"/>
</clipPath>
<clipPath id="clip1_0_1">
<rect width="51.0272" height="50" fill="white"/>
</clipPath>
</defs>
</svg>
