<svg width="55" height="50" viewBox="0 0 55 50" fill="none" xmlns="http://www.w3.org/2000/svg">
<rect width="55" height="50" fill="#F5F5F5"/>
<g clip-path="url(#clip0_0_1)" filter="url(#filter0_d_0_1)">
<rect width="375" height="812" transform="translate(-118 -524)" fill="#191919"/>
<g filter="url(#filter1_d_0_1)">
<rect x="-11" y="-13" width="76" height="76" fill="#0C0C0C"/>
</g>
<g style="mix-blend-mode:luminosity" opacity="0.7" clip-path="url(#clip1_0_1)">
<path d="M17.0942 7.06304C16.5437 6.86157 15.4455 6.21174 15.2327 5.6896C14.9063 4.88938 14.9574 3.98983 15.1362 3.14704C15.2923 2.41208 15.6186 1.61469 16.345 1.31957C16.782 1.14363 17.2786 1.18904 17.7525 1.1862C19.1203 1.17485 20.4341 0.726493 21.765 0.428537C22.71 0.21571 23.6719 0.0795014 24.6396 0.01991C25.9875 -0.0623828 27.4971 0.065313 28.4137 1.01026C30.1844 0.567583 32.08 0.800273 33.706 1.59766C33.9756 1.7282 34.2366 1.87859 34.4466 2.08574C34.6282 2.26452 34.7645 2.48302 34.9063 2.69301C35.4256 3.44783 36.0868 4.11753 36.5295 4.91492C37.2503 6.2089 37.3439 7.72706 37.4205 9.19131C37.5567 11.7509 37.6702 14.4297 36.521 16.7452C35.9903 17.8122 35.2156 18.7515 34.4438 19.6765C33.3768 20.9592 32.2928 22.256 30.9194 23.2378C30.7945 23.3286 30.6583 23.4166 30.5023 23.4336C30.4058 23.445 30.3093 23.4251 30.2156 23.4081C26.5692 22.6987 22.7242 21.8956 20 19.4836" fill="#3B2E2A"/>
<path d="M16.9013 6.3053C16.8758 8.06751 16.8531 9.84106 17.1369 11.5806C17.2617 12.3439 17.4547 13.1129 17.8917 13.7514C17.9796 13.8819 18.1187 14.0181 18.2719 13.9756C18.3571 13.9529 18.4167 13.8762 18.4649 13.8053C18.8905 13.2009 19.1885 12.517 19.4694 11.8303C20.3321 9.7162 21.0358 7.53686 21.5778 5.31779C21.6516 5.01416 21.7254 4.70485 21.8758 4.43243C22.0262 4.16002 22.2702 3.92165 22.5739 3.85071" fill="#3B2E2A"/>
<path d="M53.8507 41.7651C53.3939 40.4541 52.8774 39.1572 52.307 37.8774C52.202 37.6419 52.0942 37.4035 51.975 37.168C51.9154 37.0517 51.8558 36.9353 51.7906 36.819C51.6005 36.4728 51.382 36.1379 51.1237 35.8258C50.9506 35.6186 50.7577 35.4228 50.5392 35.2412C49.6538 34.5034 48.4421 34.0835 47.2645 33.6805C43.9415 32.5454 39.7645 31.4444 36.4415 29.6425C35.0028 28.8621 33.5641 28.1612 32.1254 27.6703H21.6459C19.597 28.3684 17.5511 29.4892 15.5023 30.664C15.5165 30.6839 11.8019 31.9013 11.5352 32.0346C10.7435 32.4262 9.9319 32.7696 9.10329 33.0761C8.1328 33.4365 7.2588 33.9274 6.31101 34.3559C5.38593 34.773 4.39557 35.1135 3.58967 35.7463C2.70999 36.4331 2.19353 37.4461 1.74801 38.445C1.31952 39.4069 0.922247 40.3746 0.559024 41.3536C0.437003 41.6799 0.320658 42.0063 0.204313 42.3326C0.104994 42.6192 0.00567537 42.9143 0 43.2094C0 43.3088 0.00567537 43.4052 0.0255392 43.5046C0.0652667 43.689 0.150397 43.8621 0.266742 44.0267C0.38025 44.1913 0.524972 44.3417 0.678207 44.4836C1.40749 45.1533 2.38649 45.6158 3.37968 46.0188C3.75142 46.1692 4.12599 46.311 4.50341 46.4472C4.55165 46.4643 4.59705 46.4813 4.64529 46.4983C5.03405 46.6374 5.42282 46.7679 5.82009 46.8928C9.06073 47.9172 13.1385 48.7089 16.5834 49.1714C18.0533 49.3701 19.5346 49.5432 21.0216 49.685C22.5482 49.8298 24.0778 49.9404 25.6101 50.0057H28.2804C29.6027 49.9489 30.9251 49.8581 32.2418 49.7418C33.9359 49.5914 35.6271 49.3984 37.3042 49.1714C40.6442 48.7231 44.7815 47.3865 47.9342 46.4189C48.3967 46.277 48.8536 46.1294 49.3048 45.9677C49.319 45.962 49.3331 45.9592 49.3445 45.9535C49.7928 45.7946 50.2355 45.63 50.6725 45.4541C51.6629 45.0539 52.6419 44.5886 53.3712 43.9217C53.601 43.7089 53.8082 43.4734 53.9302 43.2123C53.9699 43.1243 54.004 43.0363 54.0238 42.9427C54.109 42.5511 53.9784 42.1538 53.8451 41.7736L53.8507 41.7651ZM16.0528 31.4898C16.2089 31.7197 16.3933 31.9864 16.5948 32.2787C16.3905 31.9864 16.2089 31.7197 16.0528 31.4898ZM15.6073 30.8258C15.6385 30.8712 15.6754 30.9279 15.7151 30.9904C15.6725 30.9279 15.6356 30.8712 15.6073 30.8258ZM15.7208 30.9961C15.7208 30.9961 15.7208 30.9989 15.7236 31.0017C15.7236 31.0017 15.7236 30.9989 15.7208 30.9961ZM15.8314 31.1606C15.8598 31.2032 15.891 31.2486 15.9222 31.2968C15.891 31.2486 15.8598 31.206 15.8314 31.1606ZM19.6254 36.189C19.5289 36.0869 19.4325 35.979 19.3331 35.8655C19.4325 35.9762 19.5289 36.0869 19.6254 36.189ZM19.248 35.769C18.6691 35.1022 18.0505 34.2963 17.483 33.5244C18.0477 34.2963 18.6691 35.1022 19.248 35.769ZM17.395 33.3996C17.1737 33.0931 16.958 32.7951 16.7622 32.5142C16.9608 32.7951 17.1737 33.0931 17.395 33.3996Z" fill="#303742"/>
<path d="M30.383 19.8694C30.2837 21.521 30.3149 23.1952 30.7462 24.8013C31.1747 26.4074 32.0289 27.9483 33.3711 29.0437C33.4534 29.0522 32.6276 32.7582 26.4273 32.7412C22.8773 32.744 19.5118 31.7139 19.4778 29.0437C20.085 28.5499 21.1974 27.3779 21.5947 25.5164C22.0771 23.2548 21.7791 20.2213 21.7252 19.3132" fill="#E3B7A1"/>
<path d="M26.3366 25.8342C26.7736 25.6952 27.2021 25.5221 27.5965 25.2894C28.357 24.8382 28.9615 24.1714 29.6368 23.5981C29.651 23.5868 29.668 23.5726 29.6879 23.5754C29.7078 23.5783 29.7191 23.5981 29.7248 23.618C29.8014 23.811 29.7248 24.0266 29.6368 24.2139C29.3843 24.7275 29.0012 25.1617 28.6067 25.5788C28.2038 26.0073 27.7867 26.4188 27.3553 26.8189C27.1283 27.0289 26.8956 27.2389 26.6232 27.3893C26.1181 27.6702 25.508 27.727 24.9405 27.6078C24.3758 27.4886 23.8536 27.2048 23.4024 26.8445C23.2974 26.7622 22.9314 26.4869 23.0733 26.3337C23.1839 26.2116 23.5585 26.2741 23.7004 26.2712C24.2764 26.2599 24.8497 26.1918 25.4144 26.0754C25.7265 26.0102 26.033 25.9307 26.3366 25.8342V25.8342Z" fill="#D4A58E"/>
<path d="M18.2917 11.9211C18.2974 11.5579 17.9938 11.2543 17.693 11.0216C17.5113 10.8797 17.3042 10.7435 17.0715 10.7293C16.8048 10.7123 16.555 10.8655 16.3961 11.067C16.2401 11.2685 16.1606 11.5154 16.0868 11.7566C15.8513 12.5199 15.6413 13.323 15.8173 14.109C15.9364 14.6368 16.223 15.1192 16.504 15.5903C16.941 16.3224 17.3893 17.0687 18.0363 17.6504" fill="#E3B7A1"/>
<path d="M17.1594 15.8144C17.1679 16.3224 17.3297 18.0619 17.6446 18.9103C18.303 20.6754 19.1515 23.9699 20.9051 24.6169C21.24 24.7389 22.3325 25.0142 22.69 25.0369C23.4818 25.0851 24.2508 24.7957 24.9914 24.5091C26.7763 23.8224 28.4364 23.4194 29.9091 22.1368C30.4057 21.7026 31.0584 20.7009 31.45 20.1816C31.6713 19.8865 31.87 19.5743 32.1367 19.3189C32.4375 19.0323 32.8121 18.8365 33.1554 18.6039C34.3331 17.8036 35.1673 16.5068 35.4114 15.0965C35.5873 14.0749 35.4029 12.8944 34.5913 12.256C34.1827 11.9353 33.6634 11.7877 33.1469 11.7395C32.4063 11.6685 31.5379 11.8644 31.2116 12.5369C30.9931 10.8059 31.3705 9.10896 30.6725 7.51134C29.9744 5.91373 28.0816 5.32916 26.4216 4.82973C24.9517 4.38705 22.988 4.26787 21.45 4.34449C20.715 4.38138 18.95 5.6328 18.6038 6.26276C17.6503 7.99375 17.5907 8.44494 17.7752 10.2781C18.0107 12.5823 17.1168 13.5017 17.1566 15.8201L17.1594 15.8144Z" fill="#EDBFA9"/>
<path d="M34.2368 12.9654C33.8338 12.8434 33.0336 13.1612 32.7243 13.4819C33.1897 13.55 33.6522 13.6323 34.1119 13.7288C34.3645 13.7827 34.6624 13.882 34.7419 14.1686C34.7731 14.2821 34.7617 14.4013 34.7476 14.5205C34.7249 14.7305 34.6936 14.9603 34.5546 15.0937C34.4099 15.2299 34.2027 15.2157 34.0183 15.1958C33.726 15.1618 33.4337 15.1277 33.1414 15.0937C33.2493 15.315 33.4536 15.4711 33.6692 15.4995C33.7345 15.508 33.8083 15.508 33.8565 15.5619C33.9048 15.6158 33.9104 15.7038 33.9076 15.7804C33.8821 16.6175 33.3372 17.395 32.6392 17.5908C33.1897 17.7015 33.76 17.4234 34.163 16.9722C34.5659 16.521 34.8185 15.9166 34.9888 15.298C35.0994 14.8979 35.3435 14.1118 35.0512 13.76C34.81 13.4705 34.5546 13.0619 34.2368 12.9626V12.9654Z" fill="#D1A796"/>
<path d="M26.6006 13.2945C26.6062 13.7032 26.3508 14.0409 26.0302 14.0437C25.7095 14.0465 25.4428 13.7174 25.4371 13.3087C25.4314 12.9001 25.6868 12.5624 26.0075 12.5596C26.3281 12.5568 26.5949 12.8859 26.6006 13.2945V13.2945Z" fill="#0A0807"/>
<path d="M20.4087 12.9342C20.4143 13.3428 20.1589 13.6805 19.8383 13.6833C19.5176 13.6862 19.2509 13.357 19.2452 12.9484C19.2395 12.5398 19.4949 12.2021 19.8156 12.1992C20.1362 12.1964 20.403 12.5256 20.4087 12.9342Z" fill="#0A0807"/>
<path d="M21.6884 16.0528C21.6487 16.0528 21.6061 16.0358 21.5778 16.0046L20.962 15.3093C20.9365 15.2809 20.8911 15.227 20.8825 15.1504C20.874 15.0397 20.945 14.966 20.9819 14.9319C21.3706 14.5375 21.6118 13.9529 21.6572 13.2861C21.7026 12.6334 21.5721 11.9836 21.4359 11.433C21.416 11.3564 21.4643 11.277 21.5437 11.2571C21.6232 11.2401 21.6998 11.2855 21.7197 11.3621C21.8615 11.9353 21.9977 12.6135 21.9495 13.3059C21.8984 14.0409 21.6289 14.6907 21.1918 15.1334C21.1918 15.1334 21.189 15.1362 21.1862 15.1391L21.7963 15.8144C21.8502 15.874 21.8445 15.9648 21.7821 16.0187C21.7537 16.0414 21.7225 16.0556 21.6884 16.0556V16.0528Z" fill="#BD9886"/>
<path d="M19.7587 15.6782C19.7644 16.1663 19.2196 16.5692 18.5385 16.5777C17.8575 16.5862 17.2984 16.1946 17.2928 15.7066C17.2871 15.2185 17.8319 14.8155 18.513 14.807C19.194 14.7985 19.753 15.1901 19.7587 15.6782Z" fill="#E3A1A1"/>
<path d="M28.8395 16.3933C28.7402 16.8728 27.974 17.1197 27.1284 16.9466C26.2827 16.7735 25.6755 16.2429 25.7748 15.7633C25.8741 15.2837 26.6403 15.0368 27.4859 15.2099C28.3316 15.383 28.9388 15.9137 28.8395 16.3933Z" fill="#E3A1A1"/>
<path d="M18.1753 10.6697C18.4023 10.6328 18.6322 10.6498 18.8592 10.6697C19.4437 10.7151 20.0368 10.7633 20.593 10.9535C20.6639 10.9762 20.7462 11.0301 20.7264 11.101C20.7065 11.1691 20.6157 11.1748 20.5476 11.1663C19.5686 11.0613 18.4988 11.1351 17.5425 10.9506C17.6049 10.7179 17.971 10.7037 18.1753 10.6697Z" fill="#3B2E2A"/>
<path d="M16.4927 11.8502C16.3905 12.0403 16.3451 12.256 16.3082 12.4688C16.2004 13.0931 16.1493 13.7571 16.4047 14.3388C16.5381 14.6453 16.7509 14.912 16.9581 15.1731C17.1056 14.8865 16.9212 14.5488 16.8105 14.2452C16.6658 13.8394 16.6601 13.3854 16.7992 12.9796C16.8758 12.9994 16.9524 13.0193 17.029 13.0363C17.1226 12.9228 17.0631 12.7526 16.9808 12.6334C16.8417 12.4347 16.7027 12.273 16.8446 12.0318C16.9268 11.8899 17.2049 11.7963 17.2362 11.6203C17.3128 11.1635 16.6034 11.6487 16.4927 11.8502V11.8502Z" fill="#D1AA9A"/>
<path d="M33.2491 5.95633L31.3677 4.98584L29.3218 5.72931C29.4438 6.02443 29.5687 6.31955 29.6935 6.61467C29.8184 6.91263 29.9432 7.21342 29.9971 7.53408C30.0511 7.85474 30.0227 8.19526 29.8581 8.47335C29.7389 8.67199 29.5545 8.8309 29.4665 9.04657C29.3672 9.28777 29.4069 9.56586 29.5034 9.80707C29.5999 10.0483 29.7531 10.2611 29.8893 10.4853C30.5618 11.5835 30.8314 12.9228 30.6413 14.197C30.63 14.2764 30.6385 14.3899 30.7179 14.3984C30.7605 14.4041 30.8002 14.3729 30.8343 14.3417C31.4103 13.811 31.9722 13.2662 32.5227 12.7072C32.6334 12.5965 32.7469 12.4802 32.8887 12.4121C33.025 12.3468 33.3967 12.1255 33.5471 12.1084C33.933 12.0659 34.2537 12.046 34.4864 12.1907" fill="#3B2E2A"/>
<path d="M27.9768 10.8484C28.1839 10.9165 28.3967 11.0017 28.5443 11.1634C28.4563 11.0669 27.815 11.1294 27.676 11.1237C27.3865 11.1123 27.0971 11.1066 26.8048 11.101C26.5891 11.0981 25.3178 11.2173 25.2469 11.0499C25.0908 10.6753 26.1833 10.6413 26.3479 10.6328C26.8984 10.6072 27.4518 10.6782 27.9739 10.8456L27.9768 10.8484Z" fill="#3B2E2A"/>
<path d="M24.478 18.1442C24.583 18.13 24.688 18.1158 24.793 18.0988C24.8043 17.9455 24.8015 17.7866 24.7703 17.6135C24.7646 17.5766 20.4598 17.5653 20.1023 17.5993C20.0455 17.605 20.0342 17.815 20.0569 18.113C21.5211 18.3201 23.0137 18.3315 24.4808 18.1442H24.478Z" fill="white"/>
<path d="M22.8038 19.685C22.0149 19.6368 21.226 19.7276 20.457 19.9149C20.4684 19.9376 20.4769 19.9631 20.4882 19.983C20.6386 20.2923 20.8146 20.5988 21.07 20.8485C21.1636 20.9421 21.2714 21.0244 21.3991 21.0812C21.5524 21.1464 21.7255 21.1691 21.8986 21.1635C22.3498 21.1521 22.7868 20.9733 23.1386 20.7151C23.465 20.4767 23.7232 20.1788 23.9474 19.8638C23.5728 19.7702 23.1897 19.7106 22.8038 19.685Z" fill="#FF5252"/>
<path d="M22.8037 19.685C23.1896 19.7077 23.5727 19.7673 23.9473 19.8638C23.9671 19.8382 23.987 19.8098 24.004 19.7843C24.4212 19.1827 24.7532 18.706 24.7929 18.1016C24.6879 18.1158 24.5829 18.1328 24.4779 18.147C23.0108 18.3371 21.5182 18.3229 20.054 18.1158C20.0937 18.6379 20.2441 19.4381 20.4541 19.9148C21.2231 19.7276 22.012 19.6368 22.8008 19.685H22.8037Z" fill="#0A0807"/>
<path d="M24.5714 32.7497C24.5714 32.7497 20.4454 35.4653 19.2933 36.643C19.2933 36.643 18.8365 33.652 20.1446 33.11C21.45 32.568 23.5839 32.5056 23.5839 32.5056L24.4636 32.6134L24.5714 32.7497Z" fill="#3B6082"/>
<path d="M28.5896 32.5737L32.4772 36.2769C32.4772 36.2769 31.816 33.8762 30.7945 33.2065C29.7729 32.5397 29.0266 32.4943 29.0436 32.5056C29.2423 32.6248 28.5896 32.5737 28.5896 32.5737V32.5737Z" fill="#3B6082"/>
<path d="M21.0783 27.1708C21.0783 27.1708 18.584 27.7695 16.5664 30.0028L19.2934 36.6458C19.2934 36.6458 19.7616 33.2746 24.4665 32.6191C24.4665 32.6191 19.5346 30.5732 19.8638 29.8382C20.1958 29.1032 21.0783 27.1708 21.0783 27.1708V27.1708Z" fill="#5881A8"/>
<path d="M31.2628 26.3138L36.3337 28.8167C36.3337 28.8167 32.483 36.4387 32.4631 36.2486C32.4404 36.0584 30.1731 32.3099 28.5925 32.5738C28.5925 32.5738 32.4887 31.294 32.4631 30.1192C32.4376 28.9444 31.2628 26.3138 31.2628 26.3138V26.3138Z" fill="#5881A8"/>
</g>
</g>
<defs>
<filter id="filter0_d_0_1" x="-122" y="-524" width="383" height="820" filterUnits="userSpaceOnUse" color-interpolation-filters="sRGB">
<feFlood flood-opacity="0" result="BackgroundImageFix"/>
<feColorMatrix in="SourceAlpha" type="matrix" values="0 0 0 0 0 0 0 0 0 0 0 0 0 0 0 0 0 0 127 0" result="hardAlpha"/>
<feOffset dy="4"/>
<feGaussianBlur stdDeviation="2"/>
<feComposite in2="hardAlpha" operator="out"/>
<feColorMatrix type="matrix" values="0 0 0 0 0 0 0 0 0 0 0 0 0 0 0 0 0 0 0.25 0"/>
<feBlend mode="normal" in2="BackgroundImageFix" result="effect1_dropShadow_0_1"/>
<feBlend mode="normal" in="SourceGraphic" in2="effect1_dropShadow_0_1" result="shape"/>
</filter>
<filter id="filter1_d_0_1" x="-21" y="-19" width="96" height="96" filterUnits="userSpaceOnUse" color-interpolation-filters="sRGB">
<feFlood flood-opacity="0" result="BackgroundImageFix"/>
<feColorMatrix in="SourceAlpha" type="matrix" values="0 0 0 0 0 0 0 0 0 0 0 0 0 0 0 0 0 0 127 0" result="hardAlpha"/>
<feOffset dy="4"/>
<feGaussianBlur stdDeviation="5"/>
<feComposite in2="hardAlpha" operator="out"/>
<feColorMatrix type="matrix" values="0 0 0 0 0 0 0 0 0 0 0 0 0 0 0 0 0 0 0.25 0"/>
<feBlend mode="normal" in2="BackgroundImageFix" result="effect1_dropShadow_0_1"/>
<feBlend mode="normal" in="SourceGraphic" in2="effect1_dropShadow_0_1" result="shape"/>
</filter>
<clipPath id="clip0_0_1">
<rect width="375" height="812" fill="white" transform="translate(-118 -524)"/>
</clipPath>
<clipPath id="clip1_0_1">
<rect width="54.0579" height="50" fill="white"/>
</clipPath>
</defs>
</svg>
