<svg width="62" height="58" viewBox="0 0 62 58" fill="none" xmlns="http://www.w3.org/2000/svg">
<rect width="62" height="58" fill="#F5F5F5"/>
<g clip-path="url(#clip0_0_1)" filter="url(#filter0_d_0_1)">
<rect width="375" height="812" transform="translate(-200 -520)" fill="#191919"/>
<g filter="url(#filter1_d_0_1)">
<rect x="-7" y="-9" width="76" height="76" fill="#0C0C0C"/>
</g>
<g style="mix-blend-mode:luminosity" opacity="0.7" clip-path="url(#clip1_0_1)">
<path d="M61.9976 29.0102C61.9523 27.4192 61.253 25.7345 60.1034 24.5666C60.8002 23.4569 61.1549 22.0686 61.2027 20.8349C61.2782 18.8056 60.9813 16.5965 59.3186 15.269C58.3048 14.4583 57.3439 14.0225 56.3201 13.8325C56.7251 11.8868 56.3251 9.98931 54.7051 8.68207C53.6888 7.86125 52.1242 7.58764 50.8589 7.91951C48.0843 8.6466 46.8793 10.8329 46.5473 13.4702C45.9008 13.6298 45.2795 13.8958 44.8166 14.1365C43.2193 14.9624 41.8508 16.7738 41.2697 18.4585C40.5251 20.6246 40.9226 23.0617 42.1451 24.9035C40.9352 26.2184 40.3541 28.3667 40.417 29.945C40.4849 31.7007 41.5691 33.2714 43.0356 34.148C42.6055 35.5616 42.7539 37.1374 43.4934 38.6346C44.4946 40.6664 47.1334 41.6773 49.2766 41.1123C49.8728 40.9552 50.4539 40.5752 50.9796 40.0762C52.494 41.1554 54.5064 41.4569 56.4987 40.6132C59.0796 39.5188 59.6884 36.9575 59.0721 34.5964C60.7801 33.1599 62.0655 31.1433 62.0026 29.0102H61.9976Z" fill="#464949"/>
<path d="M48.2629 50.7139C48.2629 50.7139 50.4414 46.8277 51.2061 26.6946C51.2287 26.0765 51.2438 25.4685 51.2514 24.8503L51.2916 21.6886L51.8476 21.5974L51.8853 24.6856C51.8953 25.4457 51.8752 26.2006 51.845 26.9531C51.6715 31.3359 51.2036 46.0905 52.4991 50.4834L48.2629 50.7165V50.7139Z" fill="#907265"/>
<path d="M51.0753 35.5059C51.0753 35.5059 47.4907 31.5918 46.0593 25.4001L46.4442 25.2101C46.4442 25.2101 48.2529 31.5538 51.2212 34.2265L51.0728 35.5059H51.0753Z" fill="#907265"/>
<path d="M51.5456 32.1592C51.5456 32.1592 54.4108 28.5263 55.9503 23.766L56.4735 23.8851C56.4735 23.8851 53.6159 31.7994 51.5229 33.1903L51.5456 32.1592Z" fill="#907265"/>
<path d="M51.2815 37.9658C51.2815 37.9658 55.8346 35.06 57.2634 31.7235L57.691 31.9591C57.691 31.9591 55.505 36.8486 51.2739 38.9311L51.284 37.9658H51.2815Z" fill="#907265"/>
<path d="M50.7886 37.7175C50.7886 37.7175 47.9309 37.0031 45.2318 33.4259L44.8972 33.6944C44.8972 33.6944 47.4781 37.7986 50.7936 38.6143L50.7886 37.715V37.7175Z" fill="#907265"/>
<path d="M48.3307 31.0547C48.3307 31.0547 45.8957 29.3674 44.9423 27.4952L44.6958 27.6802C44.6958 27.6802 46.2781 30.7304 48.5974 31.7032" fill="#907265"/>
<path d="M54.3403 28.6834C54.3403 28.6834 56.9338 27.1988 57.9551 25.5319L58.2267 25.6965C58.2267 25.6965 56.481 28.615 54.0032 29.4359" fill="#907265"/>
<path d="M51.4349 27.5788C51.4349 27.5788 49.8552 24.9795 49.498 22.2738L49.1282 22.3979C49.1282 22.3979 49.5734 26.3982 51.362 28.2172" fill="#907265"/>
<path d="M51.699 25.4659C51.699 25.4659 52.914 23.7052 53.163 21.9647L53.563 22.0205C53.563 22.0205 53.0523 25.0808 51.7971 26.1094" fill="#907265"/>
<path d="M54.6724 35.972C54.6724 35.972 56.3377 35.7263 57.8822 34.1783L58.1464 34.376C58.1464 34.376 56.1465 36.5826 54.0737 36.6662" fill="#907265"/>
<path d="M47.785 36.5901C47.785 36.5901 45.6669 35.9391 44.8292 34.7838L44.5601 35.0676C44.5601 35.0676 45.8807 36.9879 48.2981 37.0512" fill="#907265"/>
<path d="M45.3122 30.7911C45.9435 29.9171 46.2806 28.8581 46.1196 27.7409C45.7926 25.4507 44.1978 24.2169 42.3162 24.1257C41.8357 21.5746 40.2056 19.4161 37.1719 20.1559C35.5494 20.5511 34.6061 21.9799 34.191 23.6266C30.7347 23.538 29.1072 27.8068 30.4983 30.5353C29.1877 31.5841 28.4204 33.4233 28.589 35.0346C28.7726 36.7776 29.7511 37.8467 31.0341 38.3787C30.9863 38.5231 30.9435 38.6624 30.9133 38.7891C30.5813 40.1014 31.1976 41.2972 32.0352 42.2878C33.381 43.8787 35.5117 44.2613 37.26 43.4253C37.3681 43.5089 37.4688 43.5773 37.5593 43.6254C38.6536 44.2233 40.1101 44.089 41.1968 43.5367C42.6885 42.7767 43.833 41.1427 43.8682 39.4706C46.7208 37.9506 47.4151 33.1092 45.3147 30.7937L45.3122 30.7911Z" fill="#666766"/>
<path d="M35.3256 51.2408C35.3256 51.2408 36.8097 49.8424 37.0261 40.5093L35.064 31.6601L35.4514 31.4701L37.4738 39.4301C37.4738 39.4301 39.451 32.0958 39.7353 28.3388L40.2233 28.3109C40.2233 28.3109 39.8032 33.9123 38.0474 40.256C38.0474 40.256 37.7204 49.3889 38.8372 51.2738L35.3256 51.2459V51.2408Z" fill="#838365"/>
<path d="M36.6134 37.3299C36.6134 37.3299 34.772 35.8453 33.6753 33.0535L33.3533 33.1345C33.3533 33.1345 34.9028 37.302 36.7014 38.0646L36.6134 37.3324V37.3299Z" fill="#838365"/>
<path d="M38.8774 36.01C38.8774 36.01 41.4609 33.4892 42.5526 30.173L42.9953 30.2236C42.9953 30.2236 41.0332 35.6325 38.6711 36.9321L38.8749 36.0125L38.8774 36.01Z" fill="#838365"/>
<path d="M35.9719 34.0795C35.9719 34.0795 36.6712 32.3036 36.6738 30.9305L37.0435 30.8621C37.0435 30.8621 37.119 33.474 36.1229 34.7762L35.9744 34.082L35.9719 34.0795Z" fill="#838365"/>
<path d="M39.2421 33.2409C39.2421 33.2409 38.4497 30.6695 38.5655 29.0177L38.1605 29.0278C38.1605 29.0278 38.0372 32.3086 39.1239 33.7755L39.2421 33.2434V33.2409Z" fill="#838365"/>
<path d="M40.6181 34.7736C40.6181 34.7736 42.4318 34.1149 43.3324 32.7925L43.6946 32.9774C43.6946 32.9774 42.2633 35.0954 39.9893 35.5514L40.6156 34.7761L40.6181 34.7736Z" fill="#838365"/>
<path d="M37.7832 41.1553C37.7832 41.1553 39.6523 40.2534 41.466 37.1018L41.8609 37.1398C41.8609 37.1398 40.1654 40.6739 37.7078 41.9533" fill="#838365"/>
<path d="M40.4974 39.1743C40.4974 39.1743 42.0344 38.4016 42.6985 37.6871L43.0129 37.8594C43.0129 37.8594 41.5238 39.5593 40.0295 39.6784" fill="#838365"/>
<path d="M37.2751 41.3986C37.2751 41.3986 34.015 39.6961 33.1848 37.5225L32.8528 37.6517C32.8528 37.6517 33.698 40.4384 37.1921 41.9889" fill="#838365"/>
<path d="M34.7697 40.1699C34.7697 40.1699 33.5874 39.8 32.5208 38.6954L32.312 38.9538C32.312 38.9538 33.4264 40.5296 35.2225 40.6284" fill="#838365"/>
<path d="M34.9055 35.9264C34.9055 35.9264 33.4238 35.5413 32.5082 33.7552L32.2139 33.9427C32.2139 33.9427 32.9534 35.8403 35.147 36.4356" fill="#838365"/>
<path d="M6.78442 6.92889C6.78442 5.98393 7.54411 5.22137 8.4824 5.22137H8.49246C8.34405 4.88442 8.27361 4.50695 8.29877 4.11427C8.38429 2.80702 9.50873 1.81646 10.8042 1.90259C11.257 1.933 11.6721 2.0926 12.0142 2.34088C12.2506 1.01083 13.4053 0 14.7938 0C16.1824 0 17.3219 0.998166 17.571 2.31554C17.9181 2.11287 18.3206 1.9938 18.7533 1.9938C20.0538 1.9938 21.1103 3.05783 21.1103 4.36761C21.1103 4.79069 20.9996 5.1859 20.8084 5.52791C21.621 5.65712 22.2423 6.3614 22.2423 7.21517C22.2423 7.41531 22.2071 7.60531 22.1442 7.78518H7.01334C6.86995 7.53438 6.78442 7.24303 6.78442 6.93142V6.92889Z" fill="#585858"/>
<path d="M16.7585 26.9885C14.5649 26.4615 12.2557 26.8871 10.0923 27.5306C7.92898 28.1741 5.10405 28.7264 2.88033 29.1013C2.53822 29.1596 2.16592 29.1976 1.86909 29.0177C1.69804 28.9139 1.57478 28.7492 1.46661 28.582C0.0377955 26.3754 1.45152 23.543 3.29791 21.6759C5.1443 19.8113 7.86106 19.0589 10.4772 19.0006C13.0933 18.9423 15.6768 19.4946 18.2652 19.8772C23.4321 20.6397 28.6996 20.7208 33.8866 20.1178C34.7972 20.0114 35.7229 19.8848 36.6235 20.0646C37.5241 20.2445 38.407 20.7943 38.7214 21.6607C39.0258 22.4967 38.7365 23.4645 38.1731 24.1485C37.6096 24.8325 36.8097 25.2784 35.9971 25.628C33.1747 26.8466 29.9549 27.0999 26.979 26.3399" fill="white"/>
<path d="M12.691 24.0801C11.6772 26.1853 11.1641 28.4933 10.4773 30.7278C9.79058 32.9648 8.88751 35.2068 7.265 36.884C6.66882 37.4996 5.98712 38.0291 5.40603 38.6599C4.17594 39.995 3.45399 41.743 3.08169 43.5266C2.81001 44.8363 2.73706 46.288 3.43889 47.423C4.06526 48.4338 5.18718 49.0063 6.28395 49.4497C10.5251 51.1673 15.1461 51.6842 19.7143 51.8843C24.8384 52.1098 30.3223 51.8463 34.5156 48.8721C34.7772 48.6871 35.0414 48.4819 35.1998 48.2007C35.3231 47.9803 35.3734 47.727 35.4086 47.4762C35.6577 45.6673 35.1445 43.8382 34.4502 42.1509C33.7559 40.4637 32.873 38.8524 32.3221 37.1145C31.741 35.2828 31.5322 33.322 30.7172 31.5841C30.4078 30.9228 30.0128 30.3047 29.6657 29.6637C28.7878 28.0423 28.2067 26.2613 27.9551 24.4322" fill="#473B32"/>
<path d="M20.2374 26.1473C25.1402 26.1473 29.1146 25.021 29.1146 23.6316C29.1146 22.2423 25.1402 21.116 20.2374 21.116C15.3346 21.116 11.3601 22.2423 11.3601 23.6316C11.3601 25.021 15.3346 26.1473 20.2374 26.1473Z" fill="#9E9E9E"/>
<path d="M41.8432 51.5879C41.4785 50.4631 41.0659 49.3509 40.6106 48.2514C40.2736 47.4407 39.8962 46.6123 39.2019 45.9891C38.4951 45.3557 37.5291 44.996 36.5883 44.6514C35.406 44.2182 34.2212 43.7825 33.0389 43.3492C32.8855 43.2935 32.7295 43.2352 32.5761 43.1795C30.1134 42.2751 27.6507 41.3732 25.188 40.4688H16.8239C14.2002 41.4314 11.5765 42.3941 8.95031 43.3568C8.79687 43.4126 8.64593 43.4683 8.49249 43.524C7.46867 43.899 6.44234 44.2765 5.41853 44.6514C4.47772 44.996 3.51176 45.3557 2.8049 45.9891C2.11062 46.6123 1.73077 47.4407 1.39621 48.2514C0.940901 49.3509 0.528356 50.4631 0.163606 51.5879C0.0579537 51.9147 -0.0451825 52.2567 0.0202209 52.5911C0.0831089 52.9078 0.294413 53.189 0.540933 53.4297C1.12202 54.0048 1.90434 54.4 2.69422 54.7445C3.66521 55.1676 4.67142 55.5248 5.69775 55.8314C7.97178 56.5103 10.354 56.9385 12.7337 57.2805C15.1133 57.625 17.5232 57.886 19.9356 57.9974H22.0662C24.4786 57.8885 26.8885 57.625 29.2682 57.2805C31.4843 56.9613 33.7055 56.5661 35.8362 55.9631C37.026 55.6287 38.1882 55.2284 39.3076 54.742C40.1 54.3975 40.8798 53.9997 41.4609 53.4272C41.7074 53.184 41.9187 52.9053 41.9816 52.5886C42.0495 52.2542 41.9464 51.9122 41.8382 51.5854L41.8432 51.5879Z" fill="#E3B7A1"/>
<path d="M24.0812 34.1123C23.9956 35.5538 24.0233 37.0156 24.3956 38.4166C24.7679 39.8176 25.5075 41.1653 26.6721 42.1179C26.7426 42.1255 26.0131 44.7425 20.6399 44.7273H20.6626C17.5861 44.7298 14.7687 44.3853 14.7385 42.0546C15.9032 41.0995 16.5346 39.8176 16.9069 38.4166C17.2792 37.0156 17.3069 35.5538 17.2213 34.1123" fill="#E3B7A1"/>
<path d="M13.3172 27.4723C12.9801 27.1353 12.4795 26.9783 12.0116 27.0593C11.5438 27.1404 11.1262 27.4621 10.9224 27.8928C10.7111 28.3438 10.7338 28.8834 10.9174 29.3445C11.101 29.8081 11.428 30.1982 11.8029 30.525C12.1475 30.8265 12.5324 31.0773 12.9449 31.2724C13.2619 31.4219 13.6014 31.5384 13.8681 31.7664" fill="#EDBFA9"/>
<path d="M27.3136 27.4723C27.6507 27.1353 28.1513 26.9783 28.6191 27.0593C29.087 27.1404 29.5046 27.4621 29.7084 27.8928C29.9197 28.3438 29.897 28.8834 29.7134 29.3445C29.5298 29.8081 29.2027 30.1982 28.8279 30.525C28.4833 30.8265 28.0984 31.0773 27.6859 31.2724C27.3689 31.4219 27.0293 31.5384 26.7627 31.7664" fill="#EDBFA9"/>
<path d="M26.8256 21.0627C27.3463 22.6639 27.7865 25.0149 27.618 26.692C27.5173 27.7003 27.6607 29.081 27.3664 30.0488C26.8532 31.7386 26.2646 33.4309 25.2836 34.8977C24.3025 36.3646 22.8812 37.5983 21.1757 38.0214C20.4689 38.1962 19.7167 38.2292 19.0149 38.029C18.3256 37.834 17.7169 37.4286 17.1207 37.0309C16.4113 36.5571 15.6894 36.0707 15.1636 35.3943C14.5247 34.5709 14.2304 33.5322 13.9813 32.5163C13.1537 29.1393 13.2468 26.7984 13.0908 23.3251C13.0908 23.3251 12.95 18.1823 19.2539 18.1823C25.5577 18.1823 26.4206 19.8138 26.8256 21.0627V21.0627Z" fill="#EDBFA9"/>
<path d="M17.7394 27.8903C17.7394 28.2424 17.5205 28.5262 17.2488 28.5262C16.9772 28.5262 16.7583 28.2424 16.7583 27.8903C16.7583 27.5381 16.9772 27.2544 17.2488 27.2544C17.5205 27.2544 17.7394 27.5381 17.7394 27.8903Z" fill="#0A0807"/>
<path d="M23.558 27.8903C23.558 28.2424 23.3366 28.5262 23.0674 28.5262C22.7983 28.5262 22.5769 28.2424 22.5769 27.8903C22.5769 27.5381 22.7983 27.2544 23.0674 27.2544C23.3366 27.2544 23.558 27.5381 23.558 27.8903Z" fill="#0A0807"/>
<path d="M22.6397 32.4301C22.7101 32.2123 22.768 31.9615 22.7403 31.7993C22.7554 31.8804 21.2612 32.2072 21.1404 32.2275C20.2701 32.3769 19.3821 32.3516 18.5168 32.1489C18.2476 32.0856 17.5684 31.7791 17.5483 31.8855C17.5256 32.0045 17.5533 32.2224 17.6212 32.4757C18.1973 32.6835 19.6487 32.9774 22.6397 32.4301V32.4301Z" fill="white"/>
<path d="M18.4791 33.5398C18.381 33.5575 18.2804 33.5778 18.1848 33.6031C18.2603 33.6918 18.3383 33.7703 18.4263 33.8387C18.7357 34.0769 19.0652 34.2643 19.4199 34.3125C19.9859 34.3859 20.6047 34.4163 21.1431 34.1782C21.3594 34.0819 21.5707 33.9704 21.7619 33.8032C21.8323 33.7424 21.8977 33.674 21.9631 33.6031C21.787 33.5423 21.5984 33.5068 21.4122 33.484C20.4387 33.3548 19.4451 33.3751 18.4791 33.5448V33.5398Z" fill="#FF5C5C"/>
<path d="M22.5139 32.7594C22.5516 32.6758 22.5969 32.5593 22.6371 32.4326C19.6462 32.9798 18.1947 32.686 17.6187 32.4782C17.7168 32.843 17.9079 33.2813 18.1821 33.6031C18.2802 33.5777 18.3783 33.5575 18.4764 33.5397C19.4449 33.3725 20.436 33.3522 21.4095 33.4789C21.5957 33.5042 21.7818 33.5372 21.9604 33.598C22.1793 33.3598 22.3705 33.0736 22.5113 32.7569L22.5139 32.7594Z" fill="#0A0807"/>
<path d="M17.4703 37.7504C17.8652 38.3863 18.5142 38.8702 19.2035 39.1514C19.4601 39.2552 19.7242 39.3515 19.9984 39.3996C20.5216 39.4908 21.0625 39.4047 21.5605 39.2172C21.8423 39.1108 22.1089 38.9766 22.3705 38.8296C22.5693 38.7182 22.7655 38.5991 22.9315 38.4395C23.1051 38.2697 23.2384 38.0645 23.3692 37.8593C23.5176 37.6263 23.666 37.3881 23.7113 37.1145C23.1126 37.4565 22.4913 37.7656 21.8347 37.9759C21.1782 38.1861 20.4839 38.2951 19.7971 38.2267C19.2085 38.1684 18.64 37.9809 18.0841 37.7833C17.825 37.6896 17.5508 37.5832 17.3848 37.3628C17.3848 37.4312 17.4728 37.6871 17.4728 37.7555" fill="#BD9481"/>
<path d="M19.5104 30.5428C19.4752 30.5428 19.4425 30.5276 19.4173 30.4997L18.9042 29.8993C18.884 29.874 18.8438 29.8284 18.8388 29.7625C18.8312 29.6688 18.8941 29.6054 18.9243 29.575C19.2563 29.2406 19.4676 28.7415 19.5154 28.1715C19.5632 27.6142 19.4576 27.0543 19.3494 26.5831C19.3343 26.5172 19.3746 26.4488 19.4425 26.4336C19.5104 26.4184 19.5758 26.4589 19.5909 26.5273C19.7041 27.0188 19.8123 27.6015 19.762 28.1918C19.7091 28.8201 19.4727 29.3749 19.1004 29.7498C19.1004 29.7498 19.0979 29.7524 19.0953 29.7549L19.6035 30.3376C19.6488 30.3908 19.6412 30.4668 19.5909 30.5124C19.5683 30.5327 19.5381 30.5428 19.5104 30.5428V30.5428Z" fill="#BD9886"/>
<path d="M28.8102 27.713C28.5134 27.6268 27.9097 27.8168 27.6732 28.0144C28.0178 28.0676 28.3599 28.131 28.702 28.2019C28.8907 28.2399 29.1096 28.3108 29.1624 28.4983C29.1825 28.5718 29.1724 28.6503 29.1624 28.7238C29.1423 28.8581 29.1146 29.005 29.0089 29.0886C28.8982 29.1747 28.7448 29.1621 28.6064 29.1443C28.3901 29.1165 28.1713 29.0886 27.9549 29.0607C28.0329 29.2051 28.1788 29.309 28.3423 29.3318C28.3901 29.3394 28.4455 29.3394 28.4807 29.3749C28.5159 29.4103 28.5184 29.4661 28.5159 29.5167C28.4807 30.0538 28.0606 30.5453 27.5374 30.6568C27.9449 30.7379 28.3775 30.5706 28.6844 30.2894C28.9938 30.0082 29.1926 29.6232 29.3309 29.2279C29.4215 28.9721 29.6177 28.4704 29.4064 28.2399C29.2328 28.0499 29.0492 27.7788 28.8127 27.7104L28.8102 27.713Z" fill="#D4A58E"/>
<path d="M11.8381 27.6369C12.135 27.5508 12.7387 27.7408 12.9752 27.9384C12.6305 27.9916 12.2884 28.0549 11.9463 28.1259C11.7577 28.1639 11.5388 28.2348 11.486 28.4223C11.4658 28.4957 11.4759 28.5743 11.486 28.6477C11.5061 28.782 11.5338 28.9289 11.6394 29.0126C11.7501 29.0987 11.9035 29.086 12.0419 29.0683C12.2582 29.0404 12.4771 29.0126 12.6934 28.9847C12.6154 29.1291 12.4695 29.233 12.306 29.2558C12.2582 29.2634 12.2029 29.2634 12.1677 29.2988C12.1325 29.3343 12.1299 29.39 12.1325 29.4407C12.1677 29.9778 12.5878 30.4693 13.111 30.5807C12.7035 30.6618 12.2708 30.4946 11.9639 30.2134C11.6545 29.9322 11.4558 29.5471 11.3174 29.1519C11.2269 28.896 11.0307 28.3969 11.242 28.1639C11.4155 27.9739 11.5992 27.7028 11.8356 27.6344L11.8381 27.6369Z" fill="#BF9A88"/>
<path d="M15.3924 31.7563C16.1218 31.7563 16.7131 31.4172 16.7131 30.9988C16.7131 30.5805 16.1218 30.2413 15.3924 30.2413C14.6631 30.2413 14.0718 30.5805 14.0718 30.9988C14.0718 31.4172 14.6631 31.7563 15.3924 31.7563Z" fill="#E38F8F"/>
<path d="M24.9589 26.4919C24.9388 26.4919 24.9162 26.4868 24.8961 26.4742C24.3275 26.1372 23.6509 25.9725 22.9893 26.0055C22.6572 26.0232 22.4233 26.0941 22.2522 26.2259C22.1994 26.2689 22.1214 26.2588 22.0787 26.2056C22.0359 26.1524 22.046 26.0739 22.0988 26.0308C22.3101 25.8661 22.5868 25.7775 22.9742 25.7572C23.6811 25.7192 24.408 25.8991 25.0168 26.2588C25.0747 26.2943 25.0948 26.3703 25.0596 26.4285C25.0369 26.4691 24.9967 26.4894 24.9539 26.4894L24.9589 26.4919Z" fill="#54433B"/>
<path d="M15.3321 26.2765C15.2893 26.2765 15.249 26.2537 15.2264 26.2157C15.1912 26.1574 15.2113 26.0814 15.2692 26.0459C15.8804 25.6862 16.6049 25.5063 17.3118 25.5443C17.6966 25.5646 17.9759 25.6507 18.1872 25.8179C18.24 25.861 18.2501 25.937 18.2073 25.9927C18.1645 26.0459 18.0891 26.0561 18.0337 26.013C17.8652 25.8787 17.6312 25.8103 17.2967 25.7926C16.6376 25.7571 15.9609 25.9243 15.3899 26.2613C15.3698 26.2739 15.3497 26.279 15.327 26.279L15.3321 26.2765Z" fill="#54433B"/>
<path d="M24.2572 31.3788C24.9865 31.3788 25.5778 31.0396 25.5778 30.6213C25.5778 30.2029 24.9865 29.8638 24.2572 29.8638C23.5278 29.8638 22.9365 30.2029 22.9365 30.6213C22.9365 31.0396 23.5278 31.3788 24.2572 31.3788Z" fill="#E38F8F"/>
<path d="M13.9085 24.8756C13.7223 24.1586 13.9663 23.3454 14.389 22.8134C14.8116 22.2814 15.3801 21.9875 15.9486 21.7721C17.8478 21.0526 19.8854 21.0881 21.8324 21.5492C23.7794 22.0103 25.6811 21.5593 27.52 22.5018C27.6407 20.513 27.3514 19.8442 27.0974 17.8757C27.0546 17.5413 27.0093 17.2044 26.9188 16.8852C26.7552 16.3202 26.4509 15.8389 26.1163 15.4133C25.3994 14.4987 24.5139 13.7792 23.5329 13.4423C22.5518 13.1053 21.2513 12.9153 20.3306 13.46C20.1067 13.5943 18.5597 13.6145 18.1245 13.5993C16.7837 13.5537 15.9536 14.9952 15.0707 16.2848C14.1877 17.5717 13.6469 19.1805 13.2142 20.7993C12.9979 21.6049 13.7072 22.1749 13.1916 22.7171" fill="white"/>
<path d="M41.8432 51.5879C41.4784 50.4631 41.0659 49.3509 40.6106 48.2514C40.2735 47.4407 39.8962 46.6123 39.2019 45.9891C38.495 45.3557 37.529 44.996 36.5882 44.6514C35.4059 44.2182 34.2211 43.7825 33.0388 43.3493C32.8854 43.2935 32.7294 43.2353 32.576 43.1795L30.8554 42.5487C30.6717 43.9674 29.9045 50.0755 30.151 50.8203C30.4303 51.6639 34.5909 58.2001 19.6865 57.1462C5.75805 58.2001 9.64452 51.6639 9.90614 50.8203C10.1225 50.1211 9.62188 44.9301 9.44328 43.177C9.27977 43.2378 9.11626 43.2961 8.95275 43.3569C8.79931 43.4126 8.64838 43.4683 8.49493 43.5241C7.47111 43.899 6.44478 44.2765 5.42097 44.6514C4.48016 44.996 3.5142 45.3557 2.80734 45.9891C2.11306 46.6123 1.73322 47.4407 1.39865 48.2514C0.943342 49.3509 0.530797 50.4631 0.166047 51.5879C0.0603951 51.9147 -0.0427411 52.2568 0.0226624 52.5912C0.0855503 52.9078 0.296854 53.189 0.543375 53.4297C1.12446 54.0048 1.90679 54.4 2.69666 54.7446C3.66765 55.1676 4.67386 55.5249 5.70019 55.8314C7.97422 56.5104 10.3564 56.9385 12.7361 57.2805C15.1158 57.6251 17.5256 57.886 19.938 57.9975H22.0687C24.4811 57.8885 26.8909 57.6251 29.2706 57.2805C31.4868 56.9613 33.708 56.5661 35.8386 55.9631C37.0285 55.6287 38.1906 55.2284 39.31 54.742C40.1024 54.3975 40.8822 53.9997 41.4633 53.4272C41.7098 53.184 41.9211 52.9053 41.984 52.5886C42.0519 52.2542 41.9488 51.9122 41.8406 51.5854L41.8432 51.5879Z" fill="#E3B7A1"/>
<path d="M9.90351 50.8177C9.6419 51.6614 2.53304 58.575 19.6839 57.1437C37.5566 59.4972 30.4301 51.6614 30.1484 50.8177C29.9019 50.0729 30.6691 43.9648 30.8528 42.5461C30.2893 42.3409 29.7283 42.1332 29.1648 41.928L28.3096 49.7562C23.5578 48.6745 19.7719 51.0787 19.7719 51.0787C14.6201 48.5453 11.6417 49.7562 11.6417 49.7562L10.5098 42.7843L9.44066 43.177C9.61926 44.9301 10.1224 50.121 9.90351 50.8203V50.8177Z" fill="#CF4238"/>
<path d="M20.0236 23.9509C20.9971 24.3664 22.0788 24.5842 23.1152 24.3866C22.6524 24.2068 22.1895 24.0117 21.8021 23.7001C21.4172 23.3885 21.1129 22.9401 21.0751 22.4435C21.9706 22.6563 22.5844 23.4695 23.3668 23.9585C23.6334 24.1257 23.9227 24.2549 24.2019 24.4018C25.4999 25.0783 26.6545 26.155 27.1199 27.5509C27.4117 27.4495 27.701 27.3507 27.9928 27.2494C28.0532 27.2291 28.1186 27.2038 28.1563 27.1531C28.1915 27.105 28.1966 27.0391 28.1966 26.9783C28.2293 26.1018 28.7324 25.7496 28.6544 24.8756C28.6317 24.6197 28.4406 22.9021 28.3072 22.6842C28.1211 22.3726 27.2029 21.8887 26.8684 21.7519C26.1615 21.4605 25.4446 21.2021 24.7277 20.9412C24.4585 20.8424 19.4426 20.5815 17.7395 20.6423C16.5648 20.6853 18.6778 21.04 18.0515 21.0679C17.7068 21.0831 16.8667 21.0679 16.6855 21.458C16.512 21.8304 17.1434 22.2054 17.3849 22.3776C18.215 22.973 19.0828 23.5481 20.0262 23.9509H20.0236Z" fill="#473B32"/>
<path d="M16.9874 21.3237C16.7988 22.2054 16.1498 22.9021 15.5284 23.5506C15.1385 23.956 14.7159 24.3816 14.1675 24.5006C14.243 24.3182 14.3185 24.1358 14.3939 23.9534C13.5764 25.0428 13.1638 26.4336 13.2594 27.7941C12.8192 27.6826 12.4897 27.2899 12.3312 26.8618C12.1727 26.4336 12.1551 25.965 12.14 25.5089C12.13 25.1872 12.1174 24.8655 12.1551 24.5462C12.2281 23.9357 12.4771 23.3631 12.7513 22.8134C12.8972 22.522 13.0506 22.2307 13.2645 21.9875C13.4531 21.7722 13.682 21.5999 13.926 21.4504C14.8694 20.8677 15.9913 20.6397 17.0981 20.627C18.2024 20.6144 19.2992 20.8095 20.3834 21.0197C21.0274 21.1439 21.6688 21.2781 22.3002 21.4529C22.4386 21.4909 22.5945 21.5467 22.6474 21.681C21.6512 22.0128 20.5444 21.6886 19.5281 21.9368C19.2061 22.0154 18.8866 22.1522 18.5571 22.1167C18.1899 22.0762 17.8679 21.8279 17.5006 21.7874" fill="#473B32"/>
<path d="M19.1782 27.9639C19.1782 27.8879 19.1782 27.8093 19.1606 27.7384C19.1606 27.7308 19.1606 27.7232 19.1606 27.7156C19.143 27.4521 19.0424 27.1836 18.8563 27.0468C18.7632 26.9784 18.6575 26.948 18.5519 26.9201C16.8866 26.4843 15.1509 26.801 13.4403 26.7807C13.3573 26.7807 13.2718 26.7807 13.1989 26.8289C13.0429 26.9328 13.0328 27.1962 13.0555 27.409C13.1284 28.1108 13.3045 28.7948 13.5737 29.4206C13.9007 30.439 14.6 31.2928 15.5358 31.2472C16.0565 31.2218 16.5923 31.1889 17.1055 31.1078C17.5406 31.0394 17.9909 30.9406 18.3582 30.6467C19.0474 30.0945 19.1531 28.9519 19.1782 27.9639V27.9639Z" fill="#57453D"/>
<path d="M19.2288 27.6421C19.2288 27.5661 19.2288 27.4875 19.2112 27.4166C19.2112 27.409 19.2112 27.4014 19.2112 27.3938C19.1936 27.1303 19.0929 26.8618 18.9068 26.725C18.8137 26.6566 18.7081 26.6262 18.6024 26.5983C16.9371 26.1626 15.2014 26.4792 13.4909 26.459C13.4079 26.459 13.3223 26.459 13.2494 26.5071C13.0934 26.611 13.0834 26.8745 13.106 27.0873C13.179 27.789 13.355 28.473 13.6242 29.0988C13.9512 30.1172 14.6505 30.971 15.5863 30.9254C16.107 30.9 16.6428 30.8671 17.156 30.786C17.5912 30.7176 18.0415 30.6188 18.4087 30.325C19.098 29.7727 19.2036 28.6301 19.2288 27.6421V27.6421Z" fill="#0A0807"/>
<path d="M21.314 27.8473C21.3089 27.7713 21.3064 27.6927 21.3215 27.6193C21.3215 27.6117 21.3215 27.6041 21.3215 27.5965C21.3265 27.333 21.4121 27.0594 21.5932 26.9099C21.6812 26.8364 21.7869 26.7984 21.89 26.7655C23.5301 26.2259 25.2809 26.4311 26.9864 26.307C27.0695 26.3019 27.155 26.2943 27.2305 26.3399C27.3914 26.4336 27.4141 26.6971 27.4015 26.9099C27.3638 27.6167 27.2204 28.3084 26.9839 28.9518C26.7072 29.988 26.0532 30.8848 25.1149 30.8975C24.5942 30.9051 24.0584 30.9076 23.5402 30.857C23.1025 30.8164 22.6472 30.7455 22.2673 30.4744C21.5529 29.9652 21.3894 28.8302 21.3165 27.8447L21.314 27.8473Z" fill="#57453D"/>
<path d="M21.2109 27.5078C21.2059 27.4318 21.2034 27.3533 21.2185 27.2798C21.2185 27.2722 21.2185 27.2646 21.2185 27.257C21.2235 26.9935 21.309 26.7199 21.4901 26.5704C21.5782 26.497 21.6838 26.459 21.787 26.426C23.4271 25.8864 25.1779 26.0916 26.8834 25.9675C26.9664 25.9624 27.052 25.9548 27.1274 26.0004C27.2884 26.0942 27.3111 26.3576 27.2985 26.5704C27.2607 27.2773 27.1174 27.9689 26.8809 28.6124C26.6042 29.6485 25.9502 30.5454 25.0119 30.558C24.4912 30.5656 23.9554 30.5682 23.4372 30.5175C22.9995 30.477 22.5442 30.406 22.1643 30.135C21.4499 29.6257 21.2864 28.4908 21.2134 27.5053L21.2109 27.5078Z" fill="#0A0807"/>
<path d="M19.5105 27.186C19.6388 27.2139 19.7696 27.2468 19.9004 27.2494C20.1092 27.2544 20.3104 27.181 20.5066 27.1075C20.9443 26.9453 21.1431 26.7401 21.5808 26.578C21.4978 27.0619 21.7719 27.6142 21.9229 28.0753C21.5908 28.0144 21.2563 27.9536 20.9242 27.8928C20.7984 27.87 20.6701 27.8472 20.5419 27.832C19.8652 27.7586 19.1709 27.9536 18.6049 28.3767C18.6477 28.3438 18.5747 27.7738 18.5722 27.6952C18.5647 27.5534 18.5269 27.3634 18.5722 27.2266C18.6804 26.8997 19.2866 27.1328 19.513 27.181L19.5105 27.186Z" fill="#0A0807"/>
<path d="M13.4706 26.6667C13.1361 26.6693 12.804 26.6971 12.4745 26.7503C12.4443 26.7554 12.4091 26.763 12.3915 26.7909C12.3789 26.8112 12.3789 26.839 12.3789 26.8644V27.2241C12.3789 27.2798 12.3814 27.3432 12.4166 27.3862C12.4443 27.4192 12.4896 27.4293 12.5298 27.4369C13.1612 27.5636 13.8077 27.5914 14.4441 27.523" fill="#0A0807"/>
<path d="M26.7401 26.2234C27.0722 26.1879 27.4067 26.1778 27.7388 26.193C27.7689 26.193 27.8042 26.1981 27.8243 26.2259C27.8394 26.2462 27.8419 26.2715 27.8444 26.2969C27.8545 26.4159 27.8645 26.535 27.8771 26.6566C27.8821 26.7123 27.8847 26.7757 27.8545 26.8213C27.8293 26.8568 27.7866 26.872 27.7463 26.8846C27.13 27.0822 26.4911 27.1836 25.8496 27.1886" fill="#0A0807"/>
<path d="M14.9824 45.001C13.8077 44.9858 12.6329 44.996 11.4607 45.0061C11.9085 45.2772 12.4619 45.2949 12.9851 45.3152C14.5422 45.376 16.0968 45.5153 17.6413 45.7357C17.7897 45.756 17.9457 45.7813 18.0715 45.8624C18.24 45.9688 18.9091 46.5844 19.045 46.0651C19.1431 45.6876 18.2828 45.4419 18.0539 45.3684C17.0678 45.0517 16.0113 45.0137 14.9824 45.001V45.001Z" fill="#CFA28D"/>
<path d="M25.2759 45.001C26.4506 44.9858 27.6254 44.996 28.7976 45.0061C28.3499 45.2772 27.7964 45.2949 27.2732 45.3152C25.7161 45.376 24.1615 45.5153 22.617 45.7357C22.4686 45.756 22.3126 45.7813 22.1868 45.8624C22.0183 45.9688 21.3492 46.5844 21.2133 46.0651C21.1152 45.6876 21.9755 45.4419 22.2044 45.3684C23.1905 45.0517 24.247 45.0137 25.2759 45.001V45.001Z" fill="#CFA28D"/>
</g>
</g>
<defs>
<filter id="filter0_d_0_1" x="-204" y="-520" width="383" height="820" filterUnits="userSpaceOnUse" color-interpolation-filters="sRGB">
<feFlood flood-opacity="0" result="BackgroundImageFix"/>
<feColorMatrix in="SourceAlpha" type="matrix" values="0 0 0 0 0 0 0 0 0 0 0 0 0 0 0 0 0 0 127 0" result="hardAlpha"/>
<feOffset dy="4"/>
<feGaussianBlur stdDeviation="2"/>
<feComposite in2="hardAlpha" operator="out"/>
<feColorMatrix type="matrix" values="0 0 0 0 0 0 0 0 0 0 0 0 0 0 0 0 0 0 0.25 0"/>
<feBlend mode="normal" in2="BackgroundImageFix" result="effect1_dropShadow_0_1"/>
<feBlend mode="normal" in="SourceGraphic" in2="effect1_dropShadow_0_1" result="shape"/>
</filter>
<filter id="filter1_d_0_1" x="-17" y="-15" width="96" height="96" filterUnits="userSpaceOnUse" color-interpolation-filters="sRGB">
<feFlood flood-opacity="0" result="BackgroundImageFix"/>
<feColorMatrix in="SourceAlpha" type="matrix" values="0 0 0 0 0 0 0 0 0 0 0 0 0 0 0 0 0 0 127 0" result="hardAlpha"/>
<feOffset dy="4"/>
<feGaussianBlur stdDeviation="5"/>
<feComposite in2="hardAlpha" operator="out"/>
<feColorMatrix type="matrix" values="0 0 0 0 0 0 0 0 0 0 0 0 0 0 0 0 0 0 0.25 0"/>
<feBlend mode="normal" in2="BackgroundImageFix" result="effect1_dropShadow_0_1"/>
<feBlend mode="normal" in="SourceGraphic" in2="effect1_dropShadow_0_1" result="shape"/>
</filter>
<clipPath id="clip0_0_1">
<rect width="375" height="812" fill="white" transform="translate(-200 -520)"/>
</clipPath>
<clipPath id="clip1_0_1">
<rect width="62" height="58" fill="white"/>
</clipPath>
</defs>
</svg>
