<svg width="48" height="50" viewBox="0 0 48 50" fill="none" xmlns="http://www.w3.org/2000/svg">
<path d="M22.2111 36.0047C30.7729 36.6208 32.2086 33.2954 32.0484 31.1707C30.8952 30.7359 29.9342 30.1601 28.778 29.7253L19.0922 29.8693C17.9331 30.304 16.7741 30.7417 15.6122 31.1764C15.1549 32.5123 14.9831 35.4836 22.2082 36.0047H22.2111Z" fill="#363636"/>
<path d="M47.6604 43.2741C47.6342 43.0294 47.5585 42.7847 47.4857 42.5457C47.0722 41.2386 46.6033 39.9459 46.0879 38.6675C45.8957 38.1954 45.6947 37.7203 45.4414 37.2712C45.3132 37.0466 45.1764 36.8278 45.0191 36.6234C44.8618 36.4161 44.6871 36.2203 44.4891 36.0389C43.6882 35.3019 42.5904 34.8844 41.5216 34.4842C38.3619 33.298 35.2022 32.1089 32.0425 30.9227C32.2056 33.0475 30.767 36.3729 22.2052 35.7568C14.9802 35.2356 15.152 32.2644 15.6092 30.9285C12.4553 32.1147 9.30144 33.298 6.14757 34.4842C5.08172 34.8844 3.98384 35.3047 3.18008 36.0389C2.98205 36.2203 2.80732 36.4161 2.65007 36.6234C2.49281 36.8307 2.35303 37.0466 2.2278 37.2712C1.97445 37.7203 1.77059 38.1954 1.5813 38.6675C1.06294 39.9459 0.596993 41.2386 0.183466 42.5457C0.10775 42.7847 0.0349459 43.0294 0.00873648 43.2741C0.00291216 43.3231 0 43.372 0 43.421C0 43.5188 0.00582432 43.6167 0.0232973 43.7146C0.0961013 44.0832 0.334899 44.4085 0.614466 44.6906C0.862 44.9411 1.14157 45.1628 1.44152 45.3615C1.94241 45.6955 2.49863 45.969 3.06068 46.2195C3.39558 46.3692 3.73922 46.5102 4.07994 46.6456C4.12362 46.6628 4.16439 46.6801 4.20807 46.6974C4.56044 46.8356 4.91282 46.9651 5.27101 47.0889C8.20647 48.111 11.3312 48.707 14.4531 49.1677C17.1526 49.5679 19.8901 49.873 22.6275 49.9997H25.0446C27.782 49.873 30.5195 49.565 33.219 49.1677C36.2448 48.7214 39.2734 48.1456 42.1302 47.184C42.5496 47.0429 42.9631 46.8932 43.3737 46.7348C43.3854 46.7291 43.397 46.7262 43.4116 46.7204C43.8164 46.5621 44.2183 46.398 44.6143 46.2223C45.1764 45.9719 45.7326 45.6983 46.2335 45.3644C46.5334 45.1657 46.813 44.944 47.0605 44.6935C47.3401 44.4114 47.5789 44.086 47.6517 43.7175C47.6721 43.6196 47.6779 43.5217 47.675 43.4238C47.675 43.3749 47.6692 43.3259 47.6663 43.277L47.6604 43.2741Z" fill="#454545"/>
<path d="M30.2371 2.97278C31.6902 3.61194 32.6134 5.00543 33.4375 6.33846C34.1772 7.53905 34.9082 8.75692 35.4061 10.0698C36.1342 11.9844 36.3642 14.0775 37.3078 15.8971C37.8931 17.0228 38.7668 18.1054 38.7377 19.3722C38.7231 20.0805 38.4173 20.7542 38.0242 21.3502C37.0748 22.7955 35.61 23.878 33.9937 24.5517C32.3775 25.2254 30.6156 25.5105 28.8596 25.5767C27.753 25.6199 26.6347 25.5767 25.5514 25.3579C23.9759 25.0412 22.5023 24.3675 21.0463 23.6995C20.0416 23.2389 19.0136 22.7609 18.2273 21.998" fill="#524637"/>
<path d="M26.8181 2.58418C25.7523 1.40662 24.6223 0.254974 23.041 0.0995014C21.8762 -0.0156631 20.6822 -0.09052 19.5581 0.223303C17.3944 0.830796 15.0326 2.79147 13.9609 4.74351C13.3581 5.83757 13.0931 7.07559 12.764 8.27906C12.4349 9.47677 12.0331 10.6543 11.5613 11.806C11.0808 12.9835 10.4634 13.9739 9.81691 15.0594C9.23447 16.0383 8.14533 17.1035 8.09291 18.2408C8.06087 18.9519 7.91526 19.6573 8.07835 20.3512C8.31714 21.3646 8.89084 22.3925 9.48783 23.2476C10.1868 24.2466 11.8554 24.9318 13.0057 25.332C14.156 25.7322 15.385 25.8733 16.6022 25.9597C18.236 26.0749 19.925 26.0921 21.4539 25.5077" fill="#524637"/>
<path d="M27.7732 22.3752C27.6713 24.0508 27.7033 25.7495 28.1459 27.3791C28.5857 29.0087 29.6544 29.619 31.0319 30.7304C31.1163 30.739 30.0592 34.7323 23.6962 34.7151H23.7224C20.0792 34.7179 16.8933 33.4108 16.8584 30.6987C18.2359 29.5902 18.8328 29.0058 19.2755 27.3762C19.7152 25.7466 19.7502 24.048 19.6482 22.3723" fill="#E3B7A1"/>
<path d="M15.3267 13.824C14.9277 13.4325 14.3336 13.2482 13.7803 13.3432C13.227 13.4382 12.732 13.8125 12.4903 14.3135C12.2398 14.8375 12.2689 15.4651 12.4844 16.0006C12.6999 16.539 13.0902 16.9939 13.5328 17.374C13.9405 17.7252 14.3977 18.016 14.887 18.2435C15.2626 18.4162 15.6645 18.5544 15.9819 18.8164" fill="#EDBFA9"/>
<path d="M30.965 14.1523C31.4135 13.6859 32.0862 13.4671 32.7094 13.5794C33.3326 13.6917 33.8947 14.1379 34.1655 14.7339C34.4509 15.3558 34.4159 16.1044 34.1713 16.7435C33.9267 17.3827 33.487 17.9269 32.989 18.3789C32.5289 18.7963 32.0134 19.1447 31.4601 19.4125C31.0349 19.6198 30.5835 19.781 30.2253 20.0948" fill="#EDBFA9"/>
<path d="M32.2085 7.55355C32.8229 9.41346 32.9569 11.4317 32.756 13.3809C32.6366 14.5527 32.3104 15.6928 31.9609 16.8185C31.3523 18.785 30.6563 20.7514 29.4943 22.4558C28.3324 24.1603 26.6492 25.597 24.631 26.0893C23.7923 26.2937 22.9012 26.3311 22.0712 26.1008C21.2558 25.8733 20.5336 25.4041 19.8289 24.9405C18.9873 24.3877 18.134 23.8234 17.5108 23.0374C16.7536 22.0787 16.4071 20.8723 16.113 19.6919C15.1345 15.7677 14.6627 13.0469 14.4763 9.00751C14.4763 9.00751 14.8898 3.02759 22.3566 3.02759C29.8234 3.02759 31.7309 6.10536 32.2085 7.55643V7.55355Z" fill="#EDBFA9"/>
<path d="M19.9804 15.0476C20.3021 15.0476 20.5628 14.7163 20.5628 14.3077C20.5628 13.899 20.3021 13.5677 19.9804 13.5677C19.6587 13.5677 19.3979 13.899 19.3979 14.3077C19.3979 14.7163 19.6587 15.0476 19.9804 15.0476Z" fill="#0A0807"/>
<path d="M27.45 14.3077C27.45 14.7165 27.1879 15.0476 26.8676 15.0476C26.5473 15.0476 26.2852 14.7165 26.2852 14.3077C26.2852 13.8988 26.5473 13.5677 26.8676 13.5677C27.1879 13.5677 27.45 13.8988 27.45 14.3077Z" fill="#0A0807"/>
<path d="M26.3638 19.5881C26.4482 19.3347 26.5152 19.044 26.4832 18.8568C26.5007 18.9518 24.5349 19.1476 24.3893 19.1591C23.3846 19.2541 23.3089 19.1793 21.9227 19.1015C21.5966 19.0843 20.356 18.8309 20.3356 18.9547C20.3094 19.0929 20.3414 19.3463 20.423 19.6399C21.1044 19.8818 22.8226 20.2244 26.3667 19.5881H26.3638Z" fill="white"/>
<path d="M21.4393 20.8779C21.3228 20.898 21.2063 20.9211 21.0898 20.9499C21.1772 21.0506 21.2733 21.1456 21.3752 21.2234C21.7393 21.4998 22.1324 21.7186 22.5517 21.7733C23.2215 21.8597 23.9554 21.8942 24.5932 21.6178C24.8494 21.5055 25.0999 21.376 25.3241 21.1831C25.4057 21.1111 25.4872 21.0334 25.5629 20.9499C25.3532 20.8808 25.1319 20.8376 24.9106 20.8117C23.7574 20.662 22.5809 20.685 21.4364 20.8808L21.4393 20.8779Z" fill="#FF5C5C"/>
<path d="M26.218 19.9678C26.2617 19.8699 26.317 19.7346 26.3636 19.5878C22.8225 20.2241 21.1043 19.8814 20.4199 19.6396C20.5364 20.0628 20.7606 20.5724 21.0868 20.9496C21.2033 20.9208 21.3198 20.8978 21.4363 20.8776C22.5807 20.6818 23.7573 20.6588 24.9105 20.8085C25.1318 20.8373 25.3531 20.8776 25.5628 20.9467C25.822 20.6703 26.0491 20.3392 26.2151 19.9678H26.218Z" fill="#0A0807"/>
<path d="M19.9454 25.7725C20.4114 26.5125 21.1802 27.0739 21.9985 27.3992C22.3043 27.5202 22.6159 27.6325 22.9391 27.6872C23.5594 27.7937 24.2001 27.6929 24.7883 27.477C25.1203 27.3561 25.4378 27.1977 25.7464 27.025C25.9823 26.8954 26.2153 26.7572 26.4104 26.5701C26.6172 26.3743 26.7744 26.1324 26.9288 25.8935C27.1035 25.6228 27.2812 25.3436 27.3336 25.0269C26.623 25.4242 25.8891 25.7841 25.1116 26.0288C24.334 26.2735 23.5099 26.3973 22.6974 26.3196C22.0014 26.2505 21.3287 26.0345 20.6676 25.8013C20.3589 25.6919 20.0357 25.5681 19.8406 25.3119C19.8406 25.3925 19.9425 25.6891 19.9454 25.7668" fill="#BD9886"/>
<path d="M22.6595 17.3944C22.6187 17.3944 22.578 17.3771 22.5488 17.3455L21.9431 16.6458C21.9198 16.617 21.8732 16.5652 21.8674 16.4875C21.8587 16.3781 21.9344 16.3061 21.9693 16.2716C22.3625 15.8829 22.6129 15.3042 22.6682 14.642C22.7236 13.9942 22.6013 13.3435 22.4702 12.7965C22.4527 12.7187 22.5022 12.641 22.578 12.6237C22.6566 12.6064 22.7352 12.6554 22.7527 12.7302C22.8867 13.3003 23.0148 13.9769 22.9565 14.665C22.8954 15.3963 22.6158 16.0383 22.1732 16.476C22.1732 16.476 22.1703 16.4788 22.1673 16.4817L22.7702 17.1612C22.8226 17.2217 22.8168 17.3138 22.7556 17.3656C22.7294 17.3886 22.6944 17.4002 22.6595 17.4002V17.3944Z" fill="#BD9886"/>
<path d="M32.9656 14.4837C32.5695 14.3627 31.7629 14.6247 31.4454 14.9011C31.9056 14.976 32.3657 15.0624 32.8229 15.1602C33.0733 15.2149 33.3675 15.3128 33.4373 15.5691C33.4636 15.6698 33.449 15.7793 33.4373 15.8829C33.4111 16.07 33.3733 16.2745 33.2306 16.3896C33.085 16.5077 32.8782 16.4904 32.6947 16.4645C32.4035 16.4271 32.1123 16.3896 31.824 16.3493C31.9259 16.5509 32.124 16.6919 32.3395 16.7236C32.4035 16.7322 32.4763 16.7351 32.5229 16.7841C32.5695 16.833 32.5724 16.9107 32.5695 16.9798C32.5229 17.7255 31.9609 18.4021 31.262 18.5576C31.8094 18.6699 32.3831 18.4396 32.7967 18.048C33.2102 17.6564 33.4752 17.1267 33.6616 16.5796C33.7839 16.2255 34.046 15.5317 33.7635 15.2121C33.5305 14.9472 33.2859 14.5758 32.9714 14.4808L32.9656 14.4837Z" fill="#D4A58E"/>
<path d="M13.5737 14.0142C13.9261 13.9134 14.6396 14.1322 14.9221 14.3655C14.5143 14.4288 14.1066 14.5008 13.7019 14.5814C13.4805 14.6275 13.2184 14.7081 13.1573 14.9269C13.134 15.0133 13.1456 15.1025 13.1573 15.1889C13.1806 15.3443 13.2126 15.5171 13.3407 15.615C13.4718 15.7158 13.6523 15.6985 13.8154 15.6783C14.0717 15.6467 14.3309 15.615 14.5872 15.5833C14.4969 15.7503 14.3221 15.8712 14.1299 15.8971C14.0717 15.9058 14.0076 15.9058 13.9669 15.9461C13.9232 15.9864 13.9232 16.0526 13.9261 16.1102C13.9669 16.735 14.4648 17.305 15.0851 17.4346C14.6017 17.5296 14.0921 17.3338 13.7252 17.0085C13.3611 16.6803 13.1252 16.234 12.9593 15.7762C12.8515 15.4797 12.6185 14.8981 12.869 14.6275C13.0757 14.4058 13.2912 14.0919 13.5708 14.0113L13.5737 14.0142Z" fill="#D4AB97"/>
<path d="M17.7816 18.8049C18.6453 18.8049 19.3454 18.4104 19.3454 17.9239C19.3454 17.4373 18.6453 17.0428 17.7816 17.0428C16.9179 17.0428 16.2178 17.4373 16.2178 17.9239C16.2178 18.4104 16.9179 18.8049 17.7816 18.8049Z" fill="#E3A1A1"/>
<path d="M29.1974 12.5172C29.1712 12.5172 29.1479 12.5115 29.1246 12.4971C28.449 12.1055 27.6482 11.9126 26.8677 11.9529C26.4746 11.9731 26.195 12.0537 25.997 12.2092C25.9329 12.2581 25.8426 12.2466 25.7931 12.1833C25.7436 12.1199 25.7553 12.0307 25.8193 11.9817C26.0698 11.7888 26.3988 11.6881 26.8561 11.665C27.6948 11.6218 28.5538 11.8291 29.2761 12.2495C29.346 12.2898 29.3692 12.3791 29.3285 12.4453C29.3023 12.4913 29.2528 12.5172 29.2033 12.5172H29.1974Z" fill="#54433B"/>
<path d="M17.6157 12.5171C17.5662 12.5171 17.5167 12.4912 17.4905 12.4451C17.4498 12.376 17.473 12.2897 17.5429 12.2494C18.2652 11.829 19.1242 11.6246 19.9629 11.6649C20.4202 11.6879 20.7492 11.7887 20.9997 11.9816C21.0637 12.0306 21.0754 12.1198 21.0259 12.1831C20.9764 12.2465 20.8861 12.258 20.822 12.2091C20.6211 12.0536 20.3444 11.973 19.9484 11.9528C19.1679 11.9125 18.3642 12.1054 17.6915 12.497C17.6682 12.5114 17.642 12.5171 17.6187 12.5171H17.6157Z" fill="#54433B"/>
<path d="M28.2828 18.3646C29.1481 18.3646 29.8496 17.9701 29.8496 17.4835C29.8496 16.997 29.1481 16.6025 28.2828 16.6025C27.4175 16.6025 26.7161 16.997 26.7161 17.4835C26.7161 17.9701 27.4175 18.3646 28.2828 18.3646Z" fill="#E3A1A1"/>
<path d="M26.5765 3.22037C26.4163 3.9603 26.2532 4.70312 26.0931 5.44305C24.5525 4.94208 22.8926 5.63307 21.4831 6.42195C20.7347 6.8423 20.0008 7.2972 19.3398 7.84711C18.5389 8.51506 17.8604 9.30682 17.1848 10.0986C16.7975 10.5506 16.4072 11.0084 16.151 11.5439C15.9325 11.9988 15.8219 12.494 15.7258 12.9892C15.5889 13.6946 15.321 17.2704 16.4538 21.0766C14.0746 20.5699 11.9079 18.0046 11.7711 15.6034C11.7099 14.5295 11.9662 13.4614 12.2603 12.4249C12.9243 10.0784 13.795 7.78665 14.858 5.587C15.3618 4.53901 15.9267 3.49389 16.7683 2.68774C17.6915 1.80385 18.903 1.25682 20.1523 0.948753C21.7423 0.554315 23.475 0.53704 24.9777 1.1906C25.6533 1.48427 26.3115 1.9622 26.527 2.66182" fill="#524637"/>
<path d="M26.0435 5.42887C26.0435 5.42887 27.3802 7.55365 29.7129 9.89437C30.2545 10.4385 31.533 13.856 31.7543 14.1612C31.7747 14.19 32.6367 13.8215 32.7881 13.6343C32.89 13.5105 32.7852 13.3896 32.8056 13.3925C32.8405 13.3983 32.8522 13.4184 32.8726 13.3925C33.2075 12.8829 33.3094 12.2696 33.3822 11.6679C33.6093 9.7936 33.5773 7.80414 32.6745 6.13713C32.4474 5.71678 32.1707 5.3281 31.8941 4.93942C31.533 4.4327 31.8125 4.29738 31.4543 3.79353C31.2592 3.52002 30.4234 2.8751 30.1555 2.67068C29.9167 2.4893 29.6313 2.37701 29.3488 2.2676C28.5276 1.95378 27.6278 1.66587 26.7803 1.90196C26.0348 2.10925 25.4611 2.68508 24.9224 3.23787" fill="#524637"/>
</svg>
