<svg width="10" height="7" viewBox="0 0 10 7" fill="none" xmlns="http://www.w3.org/2000/svg">
<path d="M3.39617 6.86033L0.146469 3.8108C0.100248 3.76834 0.0633951 3.717 0.0381985 3.65995C0.013002 3.6029 0 3.54136 0 3.47916C0 3.41696 0.013002 3.35543 0.0381985 3.29838C0.0633951 3.24133 0.100248 3.18998 0.146469 3.14753L0.85334 2.48426C0.949122 2.39595 1.07549 2.34681 1.20678 2.34681C1.33806 2.34681 1.46443 2.39595 1.56021 2.48426L3.75056 4.53795L8.43979 0.137453C8.53557 0.0491445 8.66194 0 8.79322 0C8.92451 0 9.05088 0.0491445 9.14666 0.137453L9.85353 0.800722C9.89975 0.843176 9.9366 0.894522 9.9618 0.951572C9.987 1.00862 10 1.07016 10 1.13236C10 1.19456 9.987 1.25609 9.9618 1.31314C9.9366 1.37019 9.89975 1.42154 9.85353 1.46399L4.10781 6.86033C4.01178 6.95 3.88441 7 3.75199 7C3.61957 7 3.4922 6.95 3.39617 6.86033V6.86033Z" fill="#00DD09"/>
</svg>
